SplineFontDB: 3.0
FontName: Maka
FullName: Maka
FamilyName: Maka
Weight: Book
Version: 1
ItalicAngle: 0
UnderlinePosition: 0
UnderlineWidth: 0
Ascent: 819
Descent: 205
sfntRevision: 0x00010000
LayerCount: 2
Layer: 0 1 "Back"  1
Layer: 1 1 "Fore"  0
HasVMetrics: 1
XUID: [1021 573 120403782 674905]
FSType: 8
OS2Version: 1
OS2_WeightWidthSlopeOnly: 0
OS2_UseTypoMetrics: 1
CreationTime: 1382991690
ModificationTime: 1383076441
PfmFamily: 17
TTFWeight: 400
TTFWidth: 5
LineGap: 92
VLineGap: 92
Panose: 2 0 5 3 0 0 0 0 0 0
OS2TypoAscent: 819
OS2TypoAOffset: 0
OS2TypoDescent: -205
OS2TypoDOffset: 0
OS2TypoLinegap: 92
OS2WinAscent: 1024
OS2WinAOffset: 0
OS2WinDescent: 197
OS2WinDOffset: 0
HheadAscent: 1024
HheadAOffset: 0
HheadDescent: -197
HheadDOffset: 0
OS2SubXSize: 665
OS2SubYSize: 716
OS2SubXOff: 0
OS2SubYOff: 143
OS2SupXSize: 665
OS2SupYSize: 716
OS2SupXOff: 0
OS2SupYOff: 491
OS2StrikeYSize: 51
OS2StrikeYPos: 265
OS2Vendor: 'PfEd'
OS2CodePages: 00000020.00000000
OS2UnicodeRanges: 00000811.02000000.00000000.00000000
MarkAttachClasses: 1
DEI: 91125
ShortTable: maxp 16
  1
  0
  34
  1791
  449
  0
  0
  2
  0
  1
  1
  0
  64
  0
  0
  0
EndShort
LangName: 1033 "" "" "Regular" "FontForge 2.0 : Maka : 29-10-2013" 
GaspTable: 1 65535 2 0
Encoding: UnicodeFull
UnicodeInterp: none
NameList: Adobe Glyph List
DisplaySize: -24
AntiAlias: 1
FitToEm: 1
WinInfo: 954 53 15
BeginChars: 1114114 34

StartChar: .notdef
Encoding: 0 0 0
Width: 1024
VWidth: 90
Flags: W
LayerCount: 2
Fore
SplineSet
0 0 m 1,0,-1
 1000 0 l 1,1,-1
 1000 1024 l 1,2,-1
 0 1024 l 1,3,-1
 0 0 l 1,0,-1
EndSplineSet
Validated: 9
EndChar

StartChar: glyph
Encoding: 1488 1488 5
Width: 700
VWidth: 90
GlyphClass: 2
Flags: W
LayerCount: 2
Fore
SplineSet
43.125 792.494 m 1,0,-1
 172.688 542.275 l 1,1,-1
 88.125 1.77539 l 1,2,-1
 294.5 1.77539 l 1,3,-1
 331.156 236.182 l 1,4,-1
 452.531 1.77539 l 1,5,-1
 658.906 1.77539 l 1,6,-1
 520.312 269.463 l 1,7,-1
 631.906 792.494 l 1,8,-1
 425.531 792.494 l 1,9,-1
 369.562 560.619 l 1,10,-1
 249.5 792.494 l 1,11,-1
 43.125 792.494 l 1,0,-1
EndSplineSet
Validated: 9
EndChar

StartChar: glyph
Encoding: 1489 1489 6
Width: 589
VWidth: 90
GlyphClass: 2
Flags: W
LayerCount: 2
Fore
SplineSet
246 803 m 0,0,1
 231 803 231 803 213 802 c 1,2,-1
 45 802 l 1,3,-1
 45 666 l 1,4,-1
 202 666 l 1,5,6
 219 664 219 664 225 662.5 c 128,-1,7
 231 661 231 661 240 656.5 c 128,-1,8
 249 652 249 652 251.5 641.5 c 128,-1,9
 254 631 254 631 256 613.5 c 128,-1,10
 258 596 258 596 258 567 c 2,11,-1
 258 555 l 1,12,-1
 258 250 l 1,13,-1
 258 248 l 2,14,15
 258 225 258 225 257 209 c 128,-1,16
 256 193 256 193 255 181 c 128,-1,17
 254 169 254 169 250 162 c 128,-1,18
 246 155 246 155 243.5 150.5 c 128,-1,19
 241 146 241 146 232.5 144 c 128,-1,20
 224 142 224 142 219.5 141 c 128,-1,21
 215 140 215 140 201 139 c 1,22,-1
 45 139 l 1,23,-1
 45 2 l 1,24,-1
 213 2 l 2,25,26
 248 2 248 2 275 2 c 2,27,-1
 448 2 l 2,28,29
 475 2 475 2 509 2 c 2,30,-1
 545 2 l 1,31,-1
 545 139 l 1,32,-1
 521 139 l 1,33,34
 507 140 507 140 502.5 141 c 128,-1,35
 498 142 498 142 489.5 144.5 c 128,-1,36
 481 147 481 147 478.5 151 c 128,-1,37
 476 155 476 155 472 162.5 c 128,-1,38
 468 170 468 170 467 182 c 128,-1,39
 466 194 466 194 465 210 c 128,-1,40
 464 226 464 226 465 250 c 1,41,-1
 464 250 l 1,42,-1
 464 251 l 1,43,-1
 464 553 l 2,44,45
 464 595 464 595 463.5 621.5 c 128,-1,46
 463 648 463 648 459.5 676 c 128,-1,47
 456 704 456 704 450 720 c 128,-1,48
 444 736 444 736 432.5 752 c 128,-1,49
 421 768 421 768 405.5 776.5 c 128,-1,50
 390 785 390 785 367 791.5 c 128,-1,51
 344 798 344 798 314.5 800.5 c 128,-1,52
 285 803 285 803 246 803 c 0,0,1
EndSplineSet
Validated: 41
EndChar

StartChar: glyph
Encoding: 1490 1490 7
Width: 529
VWidth: 90
GlyphClass: 2
Flags: W
LayerCount: 2
Fore
SplineSet
267 797 m 0,0,1
 251 797 251 797 234 797 c 2,2,-1
 65 797 l 1,3,-1
 65 660 l 1,4,-1
 222 660 l 1,5,6
 239 659 239 659 245.5 657.5 c 128,-1,7
 252 656 252 656 261 651 c 128,-1,8
 270 646 270 646 272 635.5 c 128,-1,9
 274 625 274 625 276 608 c 128,-1,10
 278 591 278 591 278 562 c 2,11,-1
 278 550 l 1,12,-1
 278 529 l 1,13,14
 270 530 270 530 262 530 c 0,15,16
 223 530 223 530 193.5 527.5 c 128,-1,17
 164 525 164 525 141 518 c 128,-1,18
 118 511 118 511 102.5 503 c 128,-1,19
 87 495 87 495 75.5 479 c 128,-1,20
 64 463 64 463 58 447 c 128,-1,21
 52 431 52 431 48.5 403 c 128,-1,22
 45 375 45 375 44.5 348.5 c 128,-1,23
 44 322 44 322 44 280 c 2,24,-1
 44 0 l 1,25,-1
 44 -2 l 1,26,-1
 250 0 l 1,27,-1
 250 2 l 1,28,-1
 250 282 l 1,29,-1
 250 294 l 1,30,31
 251 346 251 346 256.5 365 c 128,-1,32
 262 384 262 384 278 388 c 1,33,-1
 278 2 l 1,34,-1
 278 0 l 1,35,-1
 485 0 l 1,36,-1
 485 2 l 1,37,-1
 485 548 l 2,38,39
 485 590 485 590 484.5 616.5 c 128,-1,40
 484 643 484 643 480.5 671 c 128,-1,41
 477 699 477 699 471 715 c 128,-1,42
 465 731 465 731 453.5 747 c 128,-1,43
 442 763 442 763 426.5 771 c 128,-1,44
 411 779 411 779 387.5 786 c 128,-1,45
 364 793 364 793 335 795 c 128,-1,46
 306 797 306 797 267 797 c 0,0,1
EndSplineSet
Validated: 9
EndChar

StartChar: glyph
Encoding: 1491 1491 8
Width: 568
VWidth: 90
GlyphClass: 2
Flags: W
LayerCount: 2
Fore
SplineSet
42 800 m 1,0,-1
 42 663 l 1,1,-1
 250 663 l 1,2,-1
 250 0 l 1,3,-1
 456 0 l 1,4,-1
 456 663 l 1,5,-1
 524 663 l 1,6,-1
 524 800 l 1,7,-1
 42 800 l 1,0,-1
EndSplineSet
Validated: 9
EndChar

StartChar: glyph
Encoding: 1492 1492 9
Width: 540
VWidth: 90
GlyphClass: 2
Flags: W
LayerCount: 2
Fore
SplineSet
291 799 m 1,0,-1
 291 798 l 1,1,-1
 44 798 l 1,2,-1
 44 643 l 1,3,-1
 291 643 l 1,4,-1
 291 0 l 1,5,-1
 497 0 l 1,6,-1
 497 799 l 1,7,-1
 291 799 l 1,0,-1
45 535 m 1,8,-1
 45 0 l 1,9,-1
 251 0 l 1,10,-1
 251 535 l 1,11,-1
 45 535 l 1,8,-1
EndSplineSet
Validated: 9
EndChar

StartChar: glyph
Encoding: 1493 1493 10
Width: 298
VWidth: 90
GlyphClass: 2
Flags: W
LayerCount: 2
Fore
SplineSet
45 801 m 1,0,-1
 251 801 l 1,1,-1
 251 0 l 1,2,-1
 45 0 l 1,3,-1
 45 801 l 1,0,-1
EndSplineSet
Validated: 1
EndChar

StartChar: glyph
Encoding: 1494 1494 11
Width: 435
VWidth: 90
GlyphClass: 2
Flags: W
LayerCount: 2
Fore
SplineSet
43 800 m 1,0,-1
 43 663 l 1,1,-1
 118 663 l 1,2,-1
 118 0 l 1,3,-1
 324 0 l 1,4,-1
 324 663 l 1,5,-1
 392 663 l 1,6,-1
 392 800 l 1,7,-1
 43 800 l 1,0,-1
EndSplineSet
Validated: 9
EndChar

StartChar: glyph
Encoding: 1495 1495 12
Width: 538
VWidth: 90
GlyphClass: 2
Flags: W
LayerCount: 2
Fore
SplineSet
277 798 m 0,0,1
 264 798 264 798 251 798 c 2,2,-1
 44 798 l 1,3,-1
 44 -2 l 1,4,-1
 251 -2 l 1,5,-1
 251 659 l 1,6,7
 274 656 274 656 281.5 638.5 c 128,-1,8
 289 621 289 621 289 563 c 2,9,-1
 289 551 l 1,10,-1
 289 0 l 1,11,-1
 289 -2 l 1,12,-1
 495 0 l 1,13,-1
 495 2 l 1,14,-1
 495 549 l 2,15,16
 495 591 495 591 494.5 617.5 c 128,-1,17
 494 644 494 644 490.5 672 c 128,-1,18
 487 700 487 700 481 716 c 128,-1,19
 475 732 475 732 463.5 748 c 128,-1,20
 452 764 452 764 436.5 772 c 128,-1,21
 421 780 421 780 398 787 c 128,-1,22
 375 794 375 794 345.5 796 c 128,-1,23
 316 798 316 798 277 798 c 0,0,1
EndSplineSet
Validated: 9
EndChar

StartChar: glyph
Encoding: 1496 1496 13
Width: 591
VWidth: 90
GlyphClass: 2
Flags: W
LayerCount: 2
Fore
SplineSet
293 135 m 1,0,-1
 251 135 l 1,1,-1
 251 800 l 1,2,-1
 45 800 l 1,3,-1
 45 0 l 1,4,-1
 244 0 l 1,5,-1
 244 -1 l 1,6,-1
 274 -1 l 1,7,8
 342 -4 342 -4 385 -2 c 128,-1,9
 428 0 428 0 460.5 12 c 128,-1,10
 493 24 493 24 509.5 38.5 c 128,-1,11
 526 53 526 53 535.5 85.5 c 128,-1,12
 545 118 545 118 547 152 c 128,-1,13
 549 186 549 186 548 247 c 1,14,-1
 548 552 l 2,15,16
 548 594 548 594 547.5 620.5 c 128,-1,17
 547 647 547 647 543.5 674.5 c 128,-1,18
 540 702 540 702 534 718.5 c 128,-1,19
 528 735 528 735 516.5 751 c 128,-1,20
 505 767 505 767 489.5 775 c 128,-1,21
 474 783 474 783 451 790 c 128,-1,22
 428 797 428 797 398.5 799 c 128,-1,23
 369 801 369 801 330 801 c 0,24,25
 304 801 304 801 274 800 c 1,26,-1
 274 666 l 1,27,28
 279 665 279 665 289.5 664 c 128,-1,29
 300 663 300 663 303 662.5 c 128,-1,30
 306 662 306 662 313.5 660.5 c 128,-1,31
 321 659 321 659 322.5 656.5 c 128,-1,32
 324 654 324 654 329 650.5 c 128,-1,33
 334 647 334 647 334.5 641 c 128,-1,34
 335 635 335 635 337.5 627.5 c 128,-1,35
 340 620 340 620 340.5 609 c 128,-1,36
 341 598 341 598 341.5 585 c 128,-1,37
 342 572 342 572 342 554 c 2,38,-1
 342 222 l 1,39,40
 341 183 341 183 336 165 c 128,-1,41
 331 147 331 147 322.5 142.5 c 128,-1,42
 314 138 314 138 293 135 c 1,0,-1
EndSplineSet
Validated: 41
EndChar

StartChar: glyph
Encoding: 1497 1497 14
Width: 294
VWidth: 90
GlyphClass: 2
Flags: W
LayerCount: 2
Fore
SplineSet
45 813 m 1,0,-1
 251 813 l 1,1,-1
 251 465 l 1,2,-1
 45 465 l 1,3,-1
 45 813 l 1,0,-1
EndSplineSet
Validated: 1
EndChar

StartChar: glyph
Encoding: 1498 1498 15
Width: 517
VWidth: 90
GlyphClass: 2
Flags: W
LayerCount: 2
Fore
SplineSet
258.182 796.112 m 0,0,1
 233.229 796.114 233.229 796.114 201.713 795.081 c 1,2,-1
 42.4941 795.081 l 1,3,-1
 42.4941 658.769 l 1,4,-1
 149.4 658.769 l 1,5,-1
 149.4 658.362 l 1,6,-1
 220.369 658.362 l 1,7,8
 243.578 656.037 243.578 656.037 252.393 649.912 c 128,-1,9
 261.205 643.787 261.205 643.787 265.66 621.799 c 128,-1,10
 270.113 599.811 270.113 599.811 269.775 548.487 c 1,11,-1
 269.775 -205.513 l 1,12,-1
 476.182 -203.856 l 1,13,-1
 476.182 546.831 l 2,14,15
 476.617 588.328 476.617 588.328 475.898 614.918 c 128,-1,16
 475.18 641.507 475.18 641.507 471.797 669.342 c 128,-1,17
 468.414 697.176 468.414 697.176 462.338 713.361 c 128,-1,18
 456.262 729.547 456.262 729.547 444.928 745.71 c 128,-1,19
 433.594 761.874 433.594 761.874 418.064 769.949 c 128,-1,20
 402.535 778.023 402.535 778.023 379.158 784.81 c 128,-1,21
 355.779 791.595 355.779 791.595 326.705 793.853 c 128,-1,22
 297.629 796.11 297.629 796.11 258.182 796.112 c 0,0,1
EndSplineSet
EndChar

StartChar: glyph
Encoding: 1499 1499 16
Width: 415
VWidth: 90
GlyphClass: 2
Flags: W
LayerCount: 2
Fore
SplineSet
153 802 m 0,0,1
 128 802 128 802 97 801 c 1,2,-1
 44 801 l 1,3,-1
 44 664 l 1,4,-1
 115 664 l 1,5,6
 138 662 138 662 147 655.5 c 128,-1,7
 156 649 156 649 160.5 627 c 128,-1,8
 165 605 165 605 165 554 c 2,9,-1
 165 248 l 2,10,11
 165 197 165 197 160.5 175 c 128,-1,12
 156 153 156 153 147 147 c 128,-1,13
 138 141 138 141 115 138 c 1,14,-1
 44 138 l 1,15,-1
 44 2 l 1,16,-1
 97 2 l 1,17,18
 164 -1 164 -1 207.5 1 c 128,-1,19
 251 3 251 3 283.5 14.5 c 128,-1,20
 316 26 316 26 332.5 40.5 c 128,-1,21
 349 55 349 55 358.5 88 c 128,-1,22
 368 121 368 121 370 155 c 128,-1,23
 372 189 372 189 371 250 c 1,24,-1
 371 552 l 2,25,26
 371 594 371 594 370.5 620.5 c 128,-1,27
 370 647 370 647 366.5 675 c 128,-1,28
 363 703 363 703 357 719 c 128,-1,29
 351 735 351 735 339.5 751 c 128,-1,30
 328 767 328 767 312.5 775.5 c 128,-1,31
 297 784 297 784 274 790.5 c 128,-1,32
 251 797 251 797 221.5 799.5 c 128,-1,33
 192 802 192 802 153 802 c 0,0,1
EndSplineSet
Validated: 41
EndChar

StartChar: glyph
Encoding: 1500 1500 17
Width: 612
VWidth: 90
GlyphClass: 2
Flags: W
LayerCount: 2
Fore
SplineSet
46.0938 911.512 m 1,0,1
 45.7031 871.473 45.7031 871.473 46.3633 845.536 c 128,-1,2
 47.0234 819.601 47.0234 819.601 50.0605 792.361 c 128,-1,3
 53.0977 765.123 53.0977 765.123 58.6758 748.941 c 128,-1,4
 64.2549 732.761 64.2549 732.761 74.4619 716.544 c 128,-1,5
 84.668 700.328 84.668 700.328 98.8564 691.835 c 128,-1,6
 113.044 683.342 113.044 683.342 134.11 676.081 c 128,-1,7
 155.178 668.82 155.178 668.82 181.665 665.949 c 128,-1,8
 208.152 663.077 208.152 663.077 243.719 662.418 c 1,9,-1
 243.719 661.543 l 1,10,-1
 314.688 661.543 l 1,11,12
 337.897 659.218 337.897 659.218 346.711 653.093 c 128,-1,13
 355.524 646.968 355.524 646.968 359.979 624.979 c 128,-1,14
 364.433 602.99 364.433 602.99 364.094 551.668 c 1,15,-1
 364.124 250.477 l 2,16,17
 364.42 201.019 364.42 201.019 360.458 179.072 c 128,-1,18
 356.496 157.126 356.496 157.126 348.111 150.248 c 128,-1,19
 339.726 143.371 339.726 143.371 319.219 141.102 c 1,20,-1
 118.156 141.102 l 1,21,-1
 118.156 3.78906 l 1,22,-1
 299.031 3.78906 l 1,23,24
 365.774 1.6875 365.774 1.6875 408.628 3.79785 c 128,-1,25
 451.48 5.9082 451.48 5.9082 483.631 17.5205 c 128,-1,26
 515.781 29.1328 515.781 29.1328 532.033 43.7188 c 128,-1,27
 548.285 58.3057 548.285 58.3057 557.813 91.1572 c 128,-1,28
 567.341 124.008 567.341 124.008 569.23 157.93 c 128,-1,29
 571.12 191.851 571.12 191.851 570.531 252.133 c 0,30,-1
 570.501 550.012 l 2,31,32
 570.937 591.509 570.937 591.509 570.218 618.099 c 128,-1,33
 569.499 644.688 569.499 644.688 566.116 672.522 c 128,-1,34
 562.733 700.356 562.733 700.356 556.656 716.542 c 128,-1,35
 550.58 732.728 550.58 732.728 539.246 748.891 c 128,-1,36
 527.913 765.055 527.913 765.055 512.384 773.13 c 128,-1,37
 496.855 781.204 496.855 781.204 473.477 787.99 c 128,-1,38
 450.099 794.775 450.099 794.775 421.023 797.033 c 128,-1,39
 391.949 799.291 391.949 799.291 352.5 799.293 c 0,40,41
 335.626 799.294 335.626 799.294 314.031 798.762 c 0,42,43
 311.387 799.035 311.387 799.035 306.407 799.521 c 0,44,45
 289.8 801.136 289.8 801.136 283.028 802.815 c 128,-1,46
 276.258 804.495 276.258 804.495 268.158 809.786 c 128,-1,47
 260.059 815.077 260.059 815.077 257.797 827.129 c 128,-1,48
 255.536 839.18 255.536 839.18 253.91 858.254 c 128,-1,49
 252.285 877.326 252.285 877.326 252.5 909.855 c 1,50,-1
 46.0938 911.512 l 1,0,1
EndSplineSet
Validated: 41
EndChar

StartChar: glyph
Encoding: 1501 1501 18
Width: 562
VWidth: 90
GlyphClass: 2
Flags: W
LayerCount: 2
Fore
SplineSet
302 801 m 0,0,1
 280 801 280 801 250 800 c 1,2,-1
 250 801 l 1,3,-1
 44 801 l 1,4,-1
 44 1 l 1,5,-1
 226 1 l 1,6,-1
 250 1 l 1,7,-1
 490 1 l 1,8,-1
 520 1 l 1,9,-1
 520 552 l 1,10,11
 521 593 521 593 520 619.5 c 128,-1,12
 519 646 519 646 515.5 674 c 128,-1,13
 512 702 512 702 506 718 c 128,-1,14
 500 734 500 734 489 750.5 c 128,-1,15
 478 767 478 767 462.5 775 c 128,-1,16
 447 783 447 783 423.5 789.5 c 128,-1,17
 400 796 400 796 371 798.5 c 128,-1,18
 342 801 342 801 302 801 c 0,0,1
250 665 m 1,19,20
 254 664 254 664 260 664 c 0,21,22
 277 662 277 662 283.5 660.5 c 128,-1,23
 290 659 290 659 298 653.5 c 128,-1,24
 306 648 306 648 308.5 636 c 128,-1,25
 311 624 311 624 312.5 605 c 128,-1,26
 314 586 314 586 314 553 c 2,27,-1
 314 139 l 1,28,-1
 250 139 l 1,29,-1
 250 665 l 1,19,20
EndSplineSet
Validated: 41
EndChar

StartChar: glyph
Encoding: 1502 1502 19
Width: 588
VWidth: 90
GlyphClass: 2
Flags: W
LayerCount: 2
Fore
SplineSet
53 803 m 1,0,-1
 53 668 l 1,1,-1
 85 668 l 1,2,-1
 44 3 l 1,3,-1
 250 3 l 1,4,-1
 299 664 l 1,5,6
 322 660 322 660 329.5 643 c 128,-1,7
 337 626 337 626 337 568 c 2,8,-1
 337 555 l 1,9,-1
 337 139 l 1,10,-1
 291 139 l 1,11,-1
 291 3 l 1,12,-1
 337 3 l 1,13,-1
 514 3 l 1,14,-1
 544 3 l 1,15,-1
 544 5 l 1,16,-1
 544 554 l 2,17,18
 544 595 544 595 543.5 621.5 c 128,-1,19
 543 648 543 648 539.5 676 c 128,-1,20
 536 704 536 704 530 720 c 128,-1,21
 524 736 524 736 512.5 752.5 c 128,-1,22
 501 769 501 769 485.5 777 c 128,-1,23
 470 785 470 785 446.5 791.5 c 128,-1,24
 423 798 423 798 394 800.5 c 128,-1,25
 365 803 365 803 326 803 c 0,26,27
 313 803 313 803 299 803 c 2,28,-1
 186 803 l 1,29,-1
 53 803 l 1,0,-1
EndSplineSet
Validated: 9
EndChar

StartChar: glyph
Encoding: 1503 1503 20
Width: 292
VWidth: 90
GlyphClass: 2
Flags: W
LayerCount: 2
Fore
SplineSet
43 790 m 5,0,-1
 250 790 l 5,1,-1
 248 -178 l 1,2,-1
 42 -178 l 1,3,-1
 43 790 l 5,0,-1
EndSplineSet
Validated: 2097153
EndChar

StartChar: glyph
Encoding: 1504 1504 21
Width: 432
VWidth: 90
GlyphClass: 2
Flags: W
LayerCount: 2
Fore
SplineSet
170 802 m 0,0,1
 145 802 145 802 114 801 c 1,2,-1
 94 801 l 1,3,-1
 94 664 l 1,4,-1
 132 664 l 1,5,6
 156 662 156 662 164.5 655.5 c 128,-1,7
 173 649 173 649 177.5 627 c 128,-1,8
 182 605 182 605 182 554 c 2,9,-1
 182 139 l 1,10,-1
 43 139 l 1,11,-1
 43 2 l 1,12,-1
 182 2 l 1,13,-1
 240 2 l 1,14,-1
 276 2 l 1,15,-1
 388 3 l 1,16,-1
 388 552 l 1,17,18
 389 594 389 594 388 620.5 c 128,-1,19
 387 647 387 647 383.5 675 c 128,-1,20
 380 703 380 703 374 719 c 128,-1,21
 368 735 368 735 357 751 c 128,-1,22
 346 767 346 767 330 775.5 c 128,-1,23
 314 784 314 784 291 790.5 c 128,-1,24
 268 797 268 797 239 799.5 c 128,-1,25
 210 802 210 802 170 802 c 0,0,1
EndSplineSet
Validated: 41
EndChar

StartChar: glyph
Encoding: 1505 1505 22
Width: 607
VWidth: 90
GlyphClass: 2
Flags: W
LayerCount: 2
Fore
SplineSet
43 792 m 1,0,-1
 43 654 l 1,1,-1
 77 654 l 1,2,-1
 77 245 l 2,3,4
 77 202 77 202 77.5 174.5 c 128,-1,5
 78 147 78 147 82 118.5 c 128,-1,6
 86 90 86 90 92.5 74 c 128,-1,7
 99 58 99 58 112 42 c 128,-1,8
 125 26 125 26 142 18.5 c 128,-1,9
 159 11 159 11 185 4.5 c 128,-1,10
 211 -2 211 -2 243.5 -3.5 c 128,-1,11
 276 -5 276 -5 320 -4 c 1,12,13
 364 -5 364 -5 396.5 -3.5 c 128,-1,14
 429 -2 429 -2 455 4.5 c 128,-1,15
 481 11 481 11 498.5 18.5 c 128,-1,16
 516 26 516 26 528.5 42 c 128,-1,17
 541 58 541 58 547.5 74 c 128,-1,18
 554 90 554 90 558 118.5 c 128,-1,19
 562 147 562 147 563 174.5 c 128,-1,20
 564 202 564 202 563 245 c 1,21,-1
 563 690 l 1,22,-1
 563 792 l 1,23,-1
 43 792 l 1,0,-1
284 654 m 1,24,-1
 357 654 l 1,25,-1
 357 239 l 2,26,27
 357 176 357 176 350 157.5 c 128,-1,28
 343 139 343 139 320 135 c 1,29,30
 297 139 297 139 290 157.5 c 128,-1,31
 283 176 283 176 283 239 c 1,32,-1
 284 239 l 1,33,-1
 284 654 l 1,24,-1
EndSplineSet
Validated: 41
EndChar

StartChar: glyph
Encoding: 1506 1506 23
Width: 558
VWidth: 90
GlyphClass: 2
Flags: W
LayerCount: 2
Fore
SplineSet
64 807 m 1,0,-1
 64 144 l 1,1,-1
 42 144 l 1,2,-1
 42 7 l 1,3,-1
 64 7 l 1,4,-1
 215 7 l 1,5,-1
 253 7 l 1,6,-1
 271 7 l 2,7,8
 275 7 275 7 283.5 7 c 128,-1,9
 292 7 292 7 297 7 c 0,10,11
 336 7 336 7 365.5 9 c 128,-1,12
 395 11 395 11 418 18 c 128,-1,13
 441 25 441 25 456.5 33 c 128,-1,14
 472 41 472 41 483.5 57 c 128,-1,15
 495 73 495 73 501 89 c 128,-1,16
 507 105 507 105 510.5 133 c 128,-1,17
 514 161 514 161 514.5 187.5 c 128,-1,18
 515 214 515 214 515 256 c 2,19,-1
 515 803 l 1,20,-1
 515 805 l 1,21,-1
 309 807 l 1,22,-1
 309 805 l 1,23,-1
 309 254 l 1,24,-1
 309 242 l 2,25,26
 309 184 309 184 301.5 166.5 c 128,-1,27
 294 149 294 149 271 146 c 1,28,-1
 271 807 l 1,29,-1
 64 807 l 1,0,-1
EndSplineSet
Validated: 9
EndChar

StartChar: glyph
Encoding: 1507 1507 24
Width: 592
VWidth: 90
GlyphClass: 2
Flags: W
LayerCount: 2
Fore
SplineSet
549 556 m 2,0,1
 549 598 549 598 548.5 624.5 c 128,-1,2
 548 651 548 651 544.5 679 c 128,-1,3
 541 707 541 707 535 723 c 128,-1,4
 529 739 529 739 517.5 755.5 c 128,-1,5
 506 772 506 772 490.5 780 c 128,-1,6
 475 788 475 788 451.5 794.5 c 128,-1,7
 428 801 428 801 399 803.5 c 128,-1,8
 370 806 370 806 331 806 c 0,9,10
 323 806 323 806 312 806 c 0,11,12
 283 807 283 807 260 807 c 0,13,14
 220 807 220 807 191 804.5 c 128,-1,15
 162 802 162 802 138.5 795 c 128,-1,16
 115 788 115 788 99.5 780 c 128,-1,17
 84 772 84 772 73 756 c 128,-1,18
 62 740 62 740 55.5 724 c 128,-1,19
 49 708 49 708 46 680 c 128,-1,20
 43 652 43 652 42 625.5 c 128,-1,21
 41 599 41 599 42 557 c 1,22,-1
 42 420 l 1,23,24
 41 390 41 390 42 369 c 1,25,-1
 42 342 l 1,26,27
 44 303 44 303 49.5 277.5 c 128,-1,28
 55 252 55 252 66.5 230.5 c 128,-1,29
 78 209 78 209 97.5 198.5 c 128,-1,30
 117 188 117 188 147 180 c 128,-1,31
 177 172 177 172 218.5 172 c 128,-1,32
 260 172 260 172 316 172 c 1,33,-1
 316 307 l 1,34,35
 311 307 311 307 300 308 c 128,-1,36
 289 309 289 309 286.5 310 c 128,-1,37
 284 311 284 311 276 312.5 c 128,-1,38
 268 314 268 314 266.5 316 c 128,-1,39
 265 318 265 318 260.5 322 c 128,-1,40
 256 326 256 326 255 331.5 c 128,-1,41
 254 337 254 337 251.5 344.5 c 128,-1,42
 249 352 249 352 249 363 c 128,-1,43
 249 374 249 374 248.5 387.5 c 128,-1,44
 248 401 248 401 248 419 c 2,45,-1
 248 559 l 2,46,47
 248 607 248 607 251.5 629 c 128,-1,48
 255 651 255 651 263 658.5 c 128,-1,49
 271 666 271 666 290 668 c 1,50,-1
 293 668 l 1,51,52
 316 666 316 666 325 659.5 c 128,-1,53
 334 653 334 653 338.5 631 c 128,-1,54
 343 609 343 609 342 558 c 1,55,-1
 342 -196 l 1,56,-1
 549 -194 l 1,57,-1
 549 556 l 2,0,1
EndSplineSet
Validated: 41
EndChar

StartChar: glyph
Encoding: 1508 1508 25
Width: 592
VWidth: 90
GlyphClass: 2
Flags: W
LayerCount: 2
Fore
SplineSet
261 801 m 0,0,1
 222 801 222 801 192.5 798.5 c 128,-1,2
 163 796 163 796 140 789.5 c 128,-1,3
 117 783 117 783 101.5 775 c 128,-1,4
 86 767 86 767 74.5 750.5 c 128,-1,5
 63 734 63 734 57 718 c 128,-1,6
 51 702 51 702 47.5 674 c 128,-1,7
 44 646 44 646 43.5 619.5 c 128,-1,8
 43 593 43 593 43 552 c 2,9,-1
 43 415 l 2,10,11
 43 384 43 384 43 364 c 2,12,-1
 43 336 l 1,13,-1
 44 336 l 1,14,15
 45 297 45 297 50.5 271.5 c 128,-1,16
 56 246 56 246 67.5 225 c 128,-1,17
 79 204 79 204 98.5 193.5 c 128,-1,18
 118 183 118 183 148 174.5 c 128,-1,19
 178 166 178 166 219.5 166 c 128,-1,20
 261 166 261 166 317 166 c 1,21,-1
 317 301 l 1,22,23
 312 302 312 302 301.5 303 c 128,-1,24
 291 304 291 304 288 304.5 c 128,-1,25
 285 305 285 305 277.5 306.5 c 128,-1,26
 270 308 270 308 268.5 310.5 c 128,-1,27
 267 313 267 313 262 316.5 c 128,-1,28
 257 320 257 320 256.5 326 c 128,-1,29
 256 332 256 332 253.5 339.5 c 128,-1,30
 251 347 251 347 250.5 358 c 128,-1,31
 250 369 250 369 249.5 382 c 128,-1,32
 249 395 249 395 249 413 c 2,33,-1
 249 553 l 2,34,35
 249 602 249 602 252.5 623.5 c 128,-1,36
 256 645 256 645 264.5 652.5 c 128,-1,37
 273 660 273 660 292 662 c 1,38,-1
 294 662 l 1,39,40
 317 660 317 660 326 654 c 128,-1,41
 335 648 335 648 339.5 626 c 128,-1,42
 344 604 344 604 344 552 c 2,43,-1
 344 247 l 2,44,45
 344 195 344 195 339.5 173 c 128,-1,46
 335 151 335 151 326 145 c 128,-1,47
 317 139 317 139 294 137 c 1,48,-1
 50 137 l 1,49,-1
 50 0 l 1,50,-1
 276 0 l 1,51,52
 343 -2 343 -2 386.5 0 c 128,-1,53
 430 2 430 2 462.5 13.5 c 128,-1,54
 495 25 495 25 511.5 39.5 c 128,-1,55
 528 54 528 54 537.5 87 c 128,-1,56
 547 120 547 120 549 154 c 128,-1,57
 551 188 551 188 550 248 c 1,58,-1
 550 551 l 2,59,60
 550 592 550 592 549.5 618.5 c 128,-1,61
 549 645 549 645 545.5 673 c 128,-1,62
 542 701 542 701 536 717.5 c 128,-1,63
 530 734 530 734 518.5 750 c 128,-1,64
 507 766 507 766 491.5 774 c 128,-1,65
 476 782 476 782 453 789 c 128,-1,66
 430 796 430 796 400.5 798 c 128,-1,67
 371 800 371 800 332 800 c 0,68,69
 325 800 325 800 313 800 c 0,70,71
 284 801 284 801 261 801 c 0,0,1
EndSplineSet
Validated: 41
EndChar

StartChar: glyph
Encoding: 1509 1509 26
Width: 544
VWidth: 90
GlyphClass: 2
Flags: W
LayerCount: 2
Fore
SplineSet
45 807 m 1,0,-1
 44 -193 l 1,1,-1
 250 -193 l 1,2,-1
 251 251 l 1,3,4
 297 250 297 250 330 251 c 128,-1,5
 363 252 363 252 390 258 c 128,-1,6
 417 264 417 264 434.5 271.5 c 128,-1,7
 452 279 452 279 465 295 c 128,-1,8
 478 311 478 311 485 327.5 c 128,-1,9
 492 344 492 344 495.5 372.5 c 128,-1,10
 499 401 499 401 500 428.5 c 128,-1,11
 501 456 501 456 501 499 c 1,12,-1
 500 499 l 1,13,-1
 500 806 l 1,14,-1
 294 806 l 1,15,-1
 294 475 l 2,16,17
 294 421 294 421 285.5 406.5 c 128,-1,18
 277 392 277 392 251 389 c 1,19,-1
 252 807 l 1,20,-1
 45 807 l 1,0,-1
EndSplineSet
Validated: 41
EndChar

StartChar: glyph
Encoding: 1510 1510 27
Width: 596
VWidth: 90
GlyphClass: 2
Flags: W
LayerCount: 2
Fore
SplineSet
41 802 m 1,0,-1
 86 681 l 1,1,-1
 248 242 l 1,2,-1
 286 138 l 1,3,-1
 45 138 l 1,4,-1
 45 0 l 1,5,-1
 397 0 l 1,6,-1
 403 0 l 1,7,-1
 552 0 l 1,8,-1
 514 112 l 1,9,10
 540 137 540 137 547.5 183.5 c 128,-1,11
 555 230 555 230 554 322 c 1,12,-1
 554 786 l 1,13,-1
 554 787 l 1,14,-1
 348 789 l 1,15,-1
 348 787 l 1,16,-1
 348 585 l 1,17,-1
 302 715 l 1,18,19
 291 753 291 753 270 777.5 c 128,-1,20
 249 802 249 802 217 802 c 2,21,-1
 41 802 l 1,0,-1
EndSplineSet
Validated: 41
EndChar

StartChar: glyph
Encoding: 1511 1511 28
Width: 540
VWidth: 90
GlyphClass: 2
Flags: W
LayerCount: 2
Fore
SplineSet
290 801 m 1,0,-1
 290 800 l 1,1,-1
 44 800 l 1,2,-1
 44 645 l 1,3,-1
 290 645 l 1,4,-1
 290 2 l 1,5,-1
 496 2 l 1,6,-1
 496 801 l 1,7,-1
 290 801 l 1,0,-1
44 536 m 1,8,-1
 48 -197 l 1,9,-1
 255 -197 l 1,10,-1
 250 536 l 1,11,-1
 44 536 l 1,8,-1
EndSplineSet
Validated: 9
EndChar

StartChar: glyph
Encoding: 1512 1512 29
Width: 541
VWidth: 90
GlyphClass: 2
Flags: W
LayerCount: 2
Fore
SplineSet
290 804 m 1,0,-1
 290 803 l 1,1,-1
 44 803 l 1,2,-1
 44 648 l 1,3,-1
 290 648 l 1,4,-1
 290 5 l 1,5,-1
 497 5 l 1,6,-1
 497 804 l 1,7,-1
 290 804 l 1,0,-1
EndSplineSet
Validated: 9
EndChar

StartChar: glyph
Encoding: 1513 1513 30
Width: 774
VWidth: 90
GlyphClass: 2
Flags: W
LayerCount: 2
Fore
SplineSet
41 804 m 1,0,-1
 41 4 l 1,1,-1
 247 4 l 1,2,-1
 281 4 l 1,3,-1
 431 4 l 1,4,-1
 469 4 l 1,5,-1
 487 4 l 2,6,7
 491 4 491 4 500 4 c 128,-1,8
 509 4 509 4 513 4 c 0,9,10
 553 4 553 4 582 6 c 128,-1,11
 611 8 611 8 634.5 15 c 128,-1,12
 658 22 658 22 673.5 30 c 128,-1,13
 689 38 689 38 700 54 c 128,-1,14
 711 70 711 70 717 86.5 c 128,-1,15
 723 103 723 103 726.5 130.5 c 128,-1,16
 730 158 730 158 731 185 c 128,-1,17
 732 212 732 212 731 253 c 1,18,-1
 731 801 l 1,19,-1
 731 802 l 1,20,-1
 525 804 l 1,21,-1
 525 802 l 1,22,-1
 525 251 l 1,23,-1
 525 239 l 2,24,25
 525 181 525 181 517.5 163.5 c 128,-1,26
 510 146 510 146 487 143 c 1,27,-1
 487 804 l 1,28,-1
 281 804 l 1,29,-1
 281 142 l 1,30,-1
 259 142 l 1,31,-1
 259 141 l 1,32,-1
 247 141 l 1,33,-1
 247 804 l 1,34,-1
 41 804 l 1,0,-1
EndSplineSet
Validated: 41
EndChar

StartChar: glyph
Encoding: 1514 1514 31
Width: 591
VWidth: 90
GlyphClass: 2
Flags: W
LayerCount: 2
Fore
SplineSet
331 807 m 0,0,1
 318 807 318 807 304 806 c 1,2,-1
 304 807 l 1,3,-1
 98 807 l 1,4,-1
 98 143 l 1,5,-1
 44 143 l 1,6,-1
 44 6 l 1,7,-1
 254 6 l 1,8,-1
 254 7 l 1,9,-1
 304 7 l 1,10,-1
 304 668 l 1,11,12
 328 664 328 664 335 647 c 128,-1,13
 342 630 342 630 342 571 c 2,14,-1
 342 559 l 1,15,-1
 342 8 l 1,16,-1
 342 7 l 1,17,-1
 549 8 l 1,18,-1
 549 10 l 1,19,-1
 549 557 l 2,20,21
 549 599 549 599 548.5 625.5 c 128,-1,22
 548 652 548 652 544.5 680 c 128,-1,23
 541 708 541 708 535 724 c 128,-1,24
 529 740 529 740 517.5 756 c 128,-1,25
 506 772 506 772 490.5 780.5 c 128,-1,26
 475 789 475 789 451.5 795.5 c 128,-1,27
 428 802 428 802 399 804.5 c 128,-1,28
 370 807 370 807 331 807 c 0,0,1
EndSplineSet
Validated: 9
EndChar

StartChar: u1F0A1
Encoding: 127137 127137 32
Width: 1024
VWidth: 90
GlyphClass: 2
Flags: W
LayerCount: 2
Fore
SplineSet
111 1021 m 1,0,-1
 111 269 l 1,1,-1
 120 269 l 1,2,-1
 120 1015 l 1,3,-1
 573 1015 l 1,4,-1
 573 1021 l 1,5,-1
 111 1021 l 1,0,-1
211 979 m 1,6,-1
 160 842 l 1,7,-1
 196 842 l 1,8,-1
 205 867 l 1,9,-1
 260 867 l 1,10,-1
 269 842 l 1,11,-1
 304 842 l 1,12,-1
 253 979 l 1,13,-1
 211 979 l 1,6,-1
515 974 m 1,14,-1
 515 973 l 1,15,-1
 471 973 l 1,16,-1
 471 543 l 1,17,18
 456 562 456 562 435 587 c 0,19,20
 374 664 374 664 348 711 c 1,21,-1
 347 711 l 1,22,-1
 346 710 l 1,23,24
 321 664 321 664 233 556 c 1,25,26
 181 499 181 499 181 448 c 2,27,-1
 181 435 l 1,28,-1
 184 415 l 1,29,30
 205 357 205 357 257 357 c 0,31,32
 293 357 293 357 316 394 c 1,33,-1
 330 418 l 1,34,-1
 340 418 l 1,35,-1
 341 418 l 1,36,37
 341 338 341 338 317 296 c 1,38,-1
 317 294 l 1,39,-1
 377 294 l 1,40,41
 354 336 354 336 354 415 c 2,42,-1
 354 418 l 1,43,-1
 366 418 l 1,44,45
 392 357 392 357 435 357 c 0,46,47
 453 357 453 357 468 363 c 0,48,49
 469 363 469 363 471 364 c 1,50,-1
 471 222 l 1,51,-1
 480 222 l 1,52,-1
 480 968 l 1,53,-1
 515 968 l 1,54,-1
 515 848 l 2,55,56
 515 836 515 836 509 829.5 c 128,-1,57
 503 823 503 823 492 823 c 2,58,-1
 486 823 l 1,59,-1
 486 796 l 1,60,-1
 494 796 l 2,61,62
 522 796 522 796 536 809 c 128,-1,63
 550 822 550 822 550 848 c 2,64,-1
 550 968 l 1,65,-1
 933 968 l 1,66,-1
 933 973 l 1,67,-1
 550 973 l 1,68,-1
 550 974 l 1,69,-1
 515 974 l 1,14,-1
232 947 m 1,70,-1
 251 893 l 1,71,-1
 214 893 l 1,72,-1
 232 947 l 1,70,-1
574 744 m 1,73,74
 571 737 571 737 570 728 c 1,75,76
 572 736 572 736 578 740 c 1,77,78
 604 739 604 739 630.5 739.5 c 128,-1,79
 657 740 657 740 685 739.5 c 128,-1,80
 713 739 713 739 725 736 c 1,81,82
 715 736 715 736 707 735.5 c 128,-1,83
 699 735 699 735 687.5 734 c 128,-1,84
 676 733 676 733 669 729.5 c 128,-1,85
 662 726 662 726 656.5 721 c 128,-1,86
 651 716 651 716 651.5 707.5 c 128,-1,87
 652 699 652 699 658 687 c 1,88,89
 670 669 670 669 666 649 c 0,90,91
 663 635 663 635 648 644 c 1,92,93
 639 642 639 642 630 641 c 1,94,95
 647 633 647 633 651 613 c 1,96,97
 651 613 651 613 651 614 c 0,98,99
 652 634 652 634 656 641 c 1,100,101
 658 616 658 616 651 593 c 0,102,103
 650 590 650 590 650 594 c 0,104,105
 650 596 650 596 650 599 c 1,106,107
 647 593 647 593 639 590 c 1,108,109
 634 595 634 595 628.5 601.5 c 128,-1,110
 623 608 623 608 620 613.5 c 128,-1,111
 617 619 617 619 612 627 c 128,-1,112
 607 635 607 635 604 640 c 1,113,114
 605 641 605 641 607 641 c 1,115,116
 583 643 583 643 572 655 c 128,-1,117
 561 667 561 667 571 690 c 1,118,119
 571 694 571 694 569.5 705.5 c 128,-1,120
 568 717 568 717 568 723 c 1,121,122
 564 701 564 701 566.5 658.5 c 128,-1,123
 569 616 569 616 566 593 c 1,124,125
 565 327 565 327 565 229 c 1,126,127
 604 226 604 226 673.5 227.5 c 128,-1,128
 743 229 743 229 782 227 c 1,129,130
 794 230 794 230 823.5 226 c 128,-1,131
 853 222 853 222 872.5 226.5 c 128,-1,132
 892 231 892 231 896 252 c 1,133,134
 892 313 892 313 894 383 c 1,135,136
 894 420 894 420 893.5 493.5 c 128,-1,137
 893 567 893 567 893 604 c 1,138,139
 888 603 888 603 882 613 c 0,140,141
 875 623 875 623 889 624 c 1,142,143
 892 619 892 619 893 615 c 1,144,145
 893 619 893 619 893 628.5 c 128,-1,146
 893 638 893 638 893 644 c 1,147,148
 889 636 889 636 881 640 c 0,149,150
 871 646 871 646 883 657 c 1,151,-1
 889 660 l 1,152,153
 892 655 892 655 893 652 c 1,154,155
 893 692 893 692 893 742 c 1,156,157
 746 740 746 740 574 744 c 1,73,74
893 652 m 1,158,-1
 893 646 l 1,159,-1
 893 644 l 1,160,161
 895 647 895 647 893 652 c 1,158,-1
893 615 m 1,162,163
 893 613 893 613 893 609.5 c 128,-1,164
 893 606 893 606 893 604 c 1,165,166
 897 605 897 605 893 615 c 1,162,163
607 641 m 1,167,168
 618 640 618 640 630 641 c 1,169,170
 618 647 618 647 607 641 c 1,167,168
650 599 m 1,171,172
 653 605 653 605 651 613 c 1,173,174
 650 604 650 604 650 599 c 1,171,172
570 728 m 1,175,176
 569 726 569 726 569 724 c 1,177,178
 569 726 569 726 570 728 c 1,175,176
836 740 m 0,179,180
 852 740 852 740 861 733 c 128,-1,181
 870 726 870 726 861 713 c 1,182,183
 862 701 862 701 855 687 c 1,184,185
 857 689 857 689 859 692 c 1,186,187
 870 701 870 701 885 704 c 1,188,189
 883 696 883 696 874 688 c 128,-1,190
 865 680 865 680 857 675.5 c 128,-1,191
 849 671 849 671 847 674 c 1,192,193
 844 668 844 668 835.5 657 c 128,-1,194
 827 646 827 646 824 641 c 1,195,196
 829 650 829 650 825 655 c 1,197,198
 825 652 825 652 823.5 650 c 128,-1,199
 822 648 822 648 822 651 c 1,200,201
 821 653 821 653 822 658 c 1,202,203
 821 659 821 659 817 661 c 128,-1,204
 813 663 813 663 811 664.5 c 128,-1,205
 809 666 809 666 809 669 c 1,206,207
 808 668 808 668 806.5 669 c 128,-1,208
 805 670 805 670 804.5 672 c 128,-1,209
 804 674 804 674 806 679 c 1,210,211
 809 677 809 677 810 675 c 1,212,213
 812 679 812 679 816 683 c 1,214,215
 816 688 816 688 816.5 698 c 128,-1,216
 817 708 817 708 817 713 c 128,-1,217
 817 718 817 718 814.5 724 c 128,-1,218
 812 730 812 730 804.5 732 c 128,-1,219
 797 734 797 734 784 732 c 1,220,221
 769 733 769 733 763 736 c 0,222,223
 760 738 760 738 765 738 c 1,224,225
 769 739 769 739 779 738 c 0,226,227
 786 738 786 738 800 738 c 128,-1,228
 814 738 814 738 821 738 c 1,229,230
 828 740 828 740 836 740 c 0,179,180
810 675 m 1,231,232
 809 672 809 672 809 669 c 1,233,234
 813 671 813 671 810 675 c 1,231,232
822 658 m 0,235,236
 824 657 824 657 825 655 c 1,237,238
 826 660 826 660 822 659 c 1,239,240
 822 659 822 659 822 658 c 0,235,236
847 674 m 1,241,242
 852 681 852 681 855 687 c 1,243,244
 845 676 845 676 847 674 c 1,241,242
878 739 m 1,245,246
 891 738 891 738 888 727 c 0,247,248
 885 717 885 717 878 716 c 0,249,250
 876 715 876 715 875 718 c 1,251,252
 875 722 875 722 880 732 c 1,253,254
 876 737 876 737 878 739 c 1,245,246
738 738 m 1,255,256
 738 738 738 738 739 738 c 2,257,-1
 738 738 l 1,255,256
745 738 m 0,258,-1
741 738 m 0,259,-1
750 738 m 2,260,-1
 748 737 l 2,261,262
 749 738 749 738 750 738 c 2,260,-1
732 733 m 1,263,264
 736 733 736 733 749 733 c 0,265,266
 812 731 812 731 812 714 c 0,267,268
 812 711 812 711 810 707 c 1,269,270
 789 706 789 706 735 711.5 c 128,-1,271
 681 717 681 717 662 711 c 1,272,273
 657 724 657 724 672 728.5 c 128,-1,274
 687 733 687 733 705 731 c 128,-1,275
 723 729 723 729 732 733 c 1,263,264
867 730 m 0,276,-1
883 717 m 0,277,-1
711 710 m 0,278,279
 714 710 714 710 721 710 c 128,-1,280
 728 710 728 710 731 710 c 1,281,282
 755 696 755 696 743 661 c 0,283,284
 734 633 734 633 714 630 c 0,285,286
 702 628 702 628 691 638 c 1,287,288
 679 656 679 656 681 678 c 0,289,290
 683 696 683 696 699 672 c 1,291,292
 699 654 699 654 713 661 c 0,293,294
 717 663 717 663 718 666 c 0,295,296
 719 667 719 667 719 667 c 1,297,298
 718 668 718 668 715 667 c 1,299,300
 708 658 708 658 704 674 c 0,301,302
 697 703 697 703 687 704 c 0,303,304
 683 704 683 704 678 702 c 1,305,306
 690 710 690 710 711 710 c 0,278,279
868 710 m 0,307,-1
747 708 m 1,308,309
 754 687 754 687 751 683 c 1,310,-1
 747 699 l 2,311,312
 747 700 747 700 746 701 c 1,313,314
 746 701 746 701 746.5 704.5 c 128,-1,315
 747 708 747 708 747 708 c 1,308,309
753 708 m 1,316,317
 755 706 755 706 756 704 c 1,318,319
 757 706 757 706 759 707 c 1,320,321
 769 665 769 665 777 664 c 0,322,323
 781 663 781 663 786 672 c 1,324,325
 786 648 786 648 771 664 c 0,326,327
 763 673 763 673 758 686 c 1,328,329
 757 677 757 677 755 671 c 1,330,-1
 752 667 l 1,331,332
 751 669 751 669 755 683 c 1,333,334
 752 704 752 704 753 708 c 1,316,317
758 686 m 1,335,336
 760 697 760 697 756 704 c 1,337,338
 754 698 754 698 758 686 c 1,335,336
671 706 m 1,339,340
 677 693 677 693 668 682 c 0,341,342
 664 677 664 677 664 682 c 0,343,344
 664 684 664 684 665 688 c 1,345,346
 663 690 663 690 666 697 c 1,347,348
 667 695 667 695 667 693 c 1,349,350
 669 696 669 696 669 697 c 2,351,-1
 670 701 l 1,352,-1
 671 706 l 1,339,340
665 688 m 1,353,354
 666 688 666 688 667 689 c 0,355,356
 668 691 668 691 667 693 c 1,357,358
 666 690 666 690 665 688 c 1,353,354
765 705 m 1,359,360
 775 683 775 683 773 673 c 1,361,-1
 769 679 l 1,362,363
 768 683 768 683 766 690 c 0,364,365
 764 698 764 698 765 705 c 1,359,360
665 705 m 0,366,-1
771 705 m 0,367,-1
728 705 m 0,368,-1
660 704 m 0,369,-1
778 703 m 0,370,-1
783 702 m 0,371,-1
788 700 m 0,372,-1
795 699 m 0,373,-1
689 699 m 0,374,-1
720 697 m 1,375,376
 703 686 703 686 717 682.5 c 128,-1,377
 731 679 731 679 735 686 c 0,378,379
 738 690 738 690 729 696 c 1,380,-1
 720 697 l 1,375,376
722 695 m 0,381,-1
890 694 m 1,382,383
 892 690 892 690 883 682 c 0,384,385
 879 678 879 678 885 679 c 0,386,387
 887 679 887 679 889 679 c 1,388,389
 873 665 873 665 869.5 675 c 128,-1,390
 866 685 866 685 881 692 c 0,391,392
 885 693 885 693 890 694 c 1,382,383
732 693 m 0,393,-1
801 689 m 0,394,-1
725 689 m 0,395,-1
694 689 m 0,396,-1
797 688 m 0,397,-1
813 679 m 0,398,-1
873 678 m 0,399,-1
800 677 m 0,400,-1
793 675 m 0,401,-1
674 675 m 0,402,-1
889 673 m 0,403,-1
854 669 m 1,404,405
 856 669 856 669 859 669 c 1,406,407
 859 666 859 666 854 669 c 1,404,405
868 669 m 0,408,-1
762 667 m 0,409,-1
872 667 m 0,410,-1
680 666 m 0,411,-1
888 665 m 0,412,-1
781 664 m 0,413,-1
850 662 m 0,414,415
 860 662 860 662 863 658 c 256,416,417
 866 654 866 654 860 653 c 0,418,419
 853 651 853 651 844 662 c 1,420,421
 847 662 847 662 850 662 c 0,414,415
768 659 m 0,422,-1
816 657 m 0,423,-1
852 657 m 0,424,-1
704 656 m 0,425,426
 702 656 702 656 699 655 c 1,427,428
 701 647 701 647 708 647 c 0,429,430
 709 647 709 647 705 641 c 1,431,432
 719 631 719 631 720 641 c 0,433,434
 722 651 722 651 710 655 c 0,435,436
 707 656 707 656 704 656 c 0,425,426
749 656 m 0,437,-1
776 654 m 0,438,-1
845 654 m 1,439,-1
 844 653 l 1,440,-1
 845 654 l 1,439,-1
766 653 m 0,441,-1
680 651 m 1,442,443
 680 647 680 647 678 645 c 1,444,445
 680 645 680 645 683 646 c 1,446,447
 682 635 682 635 675 639 c 0,448,449
 672 641 672 641 676 644 c 1,450,451
 672 644 672 644 672 646 c 0,452,453
 672 650 672 650 680 651 c 1,442,443
678 645 m 1,454,455
 676 644 676 644 676 644 c 2,456,457
 677 644 677 644 678 645 c 1,454,455
758 651 m 0,458,-1
753 650 m 0,459,-1
868 650 m 0,460,-1
745 649 m 0,461,-1
841 649 m 0,462,-1
801 648 m 0,463,-1
763 647 m 1,464,465
 764 639 764 639 778 636 c 1,466,467
 778 636 778 636 779 637 c 1,468,469
 780 636 780 636 780 635 c 1,470,471
 782 635 782 635 785 634 c 0,472,473
 791 633 791 633 787 632 c 0,474,475
 784 631 784 631 776 629 c 1,476,477
 773 630 773 630 771 632 c 1,478,479
 775 627 775 627 767 626 c 0,480,481
 755 624 755 624 756 629 c 0,482,483
 756 632 756 632 763 637 c 1,484,485
 767 635 767 635 769 634 c 1,486,487
 762 640 762 640 763 647 c 1,464,465
769 634 m 1,488,489
 770 633 770 633 771 632 c 1,490,491
 770 633 770 633 769 634 c 1,488,489
780 635 m 257,492,493
 780 635 780 635 778 636 c 1,494,495
 778 635 778 635 779 635 c 128,-1,496
 780 635 780 635 780 635 c 257,492,493
809 647 m 0,497,-1
864 646 m 0,498,499
 868 646 868 646 868 645 c 2,500,-1
 862 643 l 2,501,502
 859 643 859 643 856 644 c 1,503,-1
 858 646 l 1,504,505
 861 646 861 646 864 646 c 0,498,499
770 646 m 0,506,-1
835 645 m 1,507,508
 838 640 838 640 843.5 635 c 128,-1,509
 849 630 849 630 858.5 623.5 c 128,-1,510
 868 617 868 617 871 614 c 1,511,-1
 870 614 l 1,512,-1
 871 614 l 1,513,514
 882 607 882 607 880 601 c 128,-1,515
 878 595 878 595 858 593 c 1,516,517
 842 576 842 576 833.5 577 c 128,-1,518
 825 578 825 578 822 591 c 1,519,520
 822 573 822 573 811 561 c 1,521,522
 812 561 812 561 819.5 563.5 c 128,-1,523
 827 566 827 566 829.5 567 c 128,-1,524
 832 568 832 568 838 570.5 c 128,-1,525
 844 573 844 573 846.5 575 c 128,-1,526
 849 577 849 577 853.5 579.5 c 128,-1,527
 858 582 858 582 860.5 585.5 c 128,-1,528
 863 589 863 589 864 593 c 1,529,-1
 869 595 l 1,530,531
 869 592 869 592 871.5 574.5 c 128,-1,532
 874 557 874 557 874.5 550.5 c 128,-1,533
 875 544 875 544 875.5 529 c 128,-1,534
 876 514 876 514 874 505.5 c 128,-1,535
 872 497 872 497 868.5 486 c 128,-1,536
 865 475 865 475 858 467 c 1,537,538
 850 465 850 465 849 466 c 0,539,540
 849 467 849 467 851 470 c 1,541,-1
 852 470 l 1,542,543
 856 476 856 476 853 479 c 1,544,-1
 859 483 l 2,545,546
 859 484 859 484 852 482 c 1,547,548
 860 485 860 485 861.5 497 c 128,-1,549
 863 509 863 509 856 515 c 1,550,551
 862 505 862 505 857 496 c 0,552,553
 852 489 852 489 851 501 c 0,554,555
 850 504 850 504 851 509 c 1,556,557
 847 516 847 516 848 518 c 1,558,559
 846 518 846 518 843 517 c 1,560,561
 843 515 843 515 841.5 497 c 128,-1,562
 840 479 840 479 841.5 465.5 c 128,-1,563
 843 452 843 452 848 450 c 0,564,565
 849 450 849 450 850 451 c 1,566,567
 854 451 854 451 855 451 c 256,568,569
 856 451 856 451 858 452 c 1,570,571
 874 479 874 479 874 442 c 0,572,573
 874 434 874 434 873 417 c 0,574,575
 872 395 872 395 873 390 c 0,576,577
 874 311 874 311 871 280 c 1,578,579
 839 268 839 268 823 295 c 128,-1,580
 807 322 807 322 808 356 c 1,581,582
 810 370 810 370 806 393 c 128,-1,583
 802 416 802 416 801 429.5 c 128,-1,584
 800 443 800 443 810 463 c 1,585,586
 823 465 823 465 828 482 c 128,-1,587
 833 499 833 499 829 515 c 1,588,589
 829 511 829 511 827 508 c 1,590,591
 828 515 828 515 820 525 c 1,592,593
 816 518 816 518 815 513 c 128,-1,594
 814 508 814 508 816 505.5 c 128,-1,595
 818 503 818 503 821 503 c 1,596,597
 817 502 817 502 814.5 503 c 128,-1,598
 812 504 812 504 811.5 508.5 c 128,-1,599
 811 513 811 513 814 522 c 1,600,-1
 816 526 l 1,601,-1
 819 530 l 1,602,603
 824 527 824 527 827 523 c 1,604,605
 818 542 818 542 802 522 c 1,606,607
 815 540 815 540 799 542 c 1,608,609
 784 545 784 545 776 532 c 0,610,611
 775 530 775 530 774 527 c 1,612,613
 774 542 774 542 788 551 c 1,614,615
 783 551 783 551 778 552 c 1,616,617
 770 569 770 569 775 591 c 128,-1,618
 780 613 780 613 793 627 c 1,619,620
 815 622 815 622 821 600 c 1,621,622
 819 632 819 632 835 645 c 1,507,508
821 600 m 1,623,624
 821 595 821 595 822 591 c 1,625,626
 822 596 822 596 821 600 c 1,623,624
788 551 m 1,627,628
 801 551 801 551 811 561 c 1,629,630
 795 556 795 556 788 551 c 1,627,628
827 523 m 1,631,632
 828 520 828 520 829 515 c 1,633,634
 829 519 829 519 827 523 c 1,631,632
855 451 m 1,635,636
 851 449 851 449 848 450 c 1,637,-1
 855 451 l 1,635,636
848 518 m 1,638,639
 853 518 853 518 856 515 c 1,640,641
 854 518 854 518 851 520 c 1,642,643
 849 519 849 519 848 518 c 1,638,639
794 644 m 0,644,-1
776 643 m 0,645,646
 779 644 779 644 779 641 c 0,647,648
 778 637 778 637 775 639 c 0,649,650
 773 640 773 640 773 643 c 1,651,652
 775 643 775 643 776 643 c 0,645,646
860 642 m 0,653,654
 862 642 862 642 859 639 c 256,655,656
 856 636 856 636 856 640 c 1,657,658
 859 642 859 642 860 642 c 0,653,654
571 642 m 1,659,660
 593 632 593 632 613.5 606.5 c 128,-1,661
 634 581 634 581 629 563 c 1,662,663
 602 552 602 552 582 584 c 128,-1,664
 562 616 562 616 571 642 c 1,659,660
686 641 m 0,665,-1
867 641 m 1,666,-1
 869 640 l 1,667,668
 866 636 866 636 863 640 c 1,669,670
 866 640 866 640 867 641 c 1,666,-1
593 640 m 1,671,672
 597 635 597 635 607.5 624 c 128,-1,673
 618 613 618 613 625.5 603.5 c 128,-1,674
 633 594 633 594 639 583.5 c 128,-1,675
 645 573 645 573 640.5 565.5 c 128,-1,676
 636 558 636 558 621 556 c 1,677,678
 636 561 636 561 638.5 568.5 c 128,-1,679
 641 576 641 576 634 585 c 128,-1,680
 627 594 627 594 618 603 c 128,-1,681
 609 612 609 612 601 622 c 128,-1,682
 593 632 593 632 593 640 c 1,671,672
850 638 m 0,683,-1
815 638 m 0,684,-1
834 638 m 1,685,686
 818 622 818 622 826 598 c 0,687,688
 834 577 834 577 850 589 c 0,689,690
 855 592 855 592 860 599 c 1,691,692
 883 606 883 606 862 618 c 0,693,694
 836 634 836 634 834 638 c 1,685,686
742 637 m 0,695,-1
703 636 m 0,696,-1
690 636 m 0,697,-1
860 634 m 256,698,699
 862 634 862 634 868 632 c 1,700,701
 867 628 867 628 865 628 c 128,-1,702
 863 628 863 628 861 629.5 c 128,-1,703
 859 631 859 631 858 633 c 0,704,705
 858 634 858 634 860 634 c 256,698,699
810 634 m 2,706,-1
 809 634 l 1,707,708
 809 634 809 634 810 634 c 2,706,-1
665 633 m 1,709,710
 666 634 666 634 668 633 c 0,711,712
 668 632 668 632 668 631 c 0,713,714
 668 629 668 629 666 631 c 1,715,716
 661 633 661 633 665 633 c 1,709,710
694 633 m 0,717,-1
882 633 m 0,718,-1
821 632 m 0,719,-1
835 632 m 1,720,721
 860 614 860 614 861 611 c 256,722,723
 862 608 862 608 844 619 c 1,724,725
 841 619 841 619 838 619 c 1,726,727
 827 615 827 615 837 604 c 0,728,729
 846 595 846 595 854 600 c 1,730,731
 834 583 834 583 829 602 c 1,732,733
 824 616 824 616 835 632 c 1,720,721
838 619 m 0,734,-1
800 630 m 0,735,-1
698 630 m 1,736,737
 709 622 709 622 736 623.5 c 128,-1,738
 763 625 763 625 770 617 c 1,739,740
 758 621 758 621 745.5 619.5 c 128,-1,741
 733 618 733 618 719 620 c 128,-1,742
 705 622 705 622 698 630 c 1,736,737
865 627 m 1,743,744
 866 627 866 627 868 626 c 1,745,746
 868 626 868 626 868 625 c 0,747,748
 868 623 868 623 865 627 c 1,743,744
680 626 m 0,749,-1
661 623 m 0,750,-1
681 621 m 0,751,-1
746 619 m 1,752,-1
 737 613 l 2,753,754
 738 614 738 614 741 616 c 256,755,756
 744 618 744 618 745 618.5 c 128,-1,757
 746 619 746 619 746 619 c 1,752,-1
682 619 m 0,758,-1
697 619 m 0,759,-1
707 618 m 0,760,-1
715 618 m 0,761,-1
730 615 m 0,762,-1
755 614 m 2,763,764
 756 614 756 614 756 614 c 1,765,-1
 755 614 l 2,763,764
773 614 m 0,766,-1
760 614 m 0,767,-1
664 613 m 0,768,-1
682 612 m 0,769,-1
748 611 m 0,770,-1
671 610 m 0,771,-1
676 609 m 0,772,-1
717 607 m 0,773,774
 740 608 740 608 733 578 c 1,775,776
 727 557 727 557 719 555 c 1,777,778
 716 553 716 553 714 559 c 0,779,780
 713 563 713 563 714 570 c 1,781,782
 712 584 712 584 702 589 c 0,783,784
 694 594 694 594 693.5 588.5 c 128,-1,785
 693 583 693 583 704 575 c 1,786,787
 701 557 701 557 695 557 c 0,788,789
 686 558 686 558 684 578 c 0,790,791
 682 604 682 604 703 606 c 2,792,-1
 710 607 l 2,793,794
 713 607 713 607 717 607 c 0,773,774
774 607 m 0,795,-1
662 607 m 1,796,797
 671 605 671 605 676 598 c 0,798,799
 679 593 679 593 677 592 c 0,800,801
 674 591 674 591 665 602 c 1,802,-1
 662 607 l 1,796,797
766 606 m 0,803,-1
656 604 m 0,804,-1
720 602 m 1,805,-1
 720 601 l 1,806,-1
 723 599 l 1,807,808
 725 602 725 602 720 602 c 1,805,-1
764 602 m 1,809,810
 766 602 766 602 768 602 c 1,811,812
 767 602 767 602 764 602 c 1,809,810
697 601 m 0,813,-1
757 598 m 1,814,815
 766 591 766 591 750 590 c 0,816,817
 740 589 740 589 739.5 591.5 c 128,-1,818
 739 594 739 594 753 597 c 1,819,-1
 756 597 l 1,820,-1
 757 598 l 1,814,815
664 597 m 0,821,-1
884 596 m 1,822,823
 893 580 893 580 892 550.5 c 128,-1,824
 891 521 891 521 883 517 c 1,825,826
 879 560 879 560 884 596 c 1,822,823
658 596 m 0,827,-1
718 595 m 0,828,-1
768 595 m 0,829,830
 769 595 769 595 771 594 c 1,831,832
 770 591 770 591 768 592 c 0,833,834
 767 593 767 593 768 595 c 0,829,830
570 594 m 1,835,836
 573 590 573 590 583 580 c 128,-1,837
 593 570 593 570 598.5 563.5 c 128,-1,838
 604 557 604 557 608 547.5 c 128,-1,839
 612 538 612 538 610 530 c 1,840,841
 612 532 612 532 619 533 c 1,842,843
 616 544 616 544 626 551.5 c 128,-1,844
 636 559 636 559 648 558 c 1,845,846
 657 553 657 553 649 544 c 0,847,848
 645 539 645 539 645 545 c 1,849,850
 642 533 642 533 639 534 c 0,851,852
 638 535 638 535 640 543 c 1,853,854
 639 537 639 537 637 534.5 c 128,-1,855
 635 532 635 532 633.5 532 c 128,-1,856
 632 532 632 532 631 534 c 1,857,858
 629 527 629 527 620 526 c 128,-1,859
 611 525 611 525 609 528 c 1,860,861
 607 522 607 522 602 517 c 1,862,863
 601 505 601 505 595.5 487.5 c 128,-1,864
 590 470 590 470 586 457 c 128,-1,865
 582 444 582 444 583 428.5 c 128,-1,866
 584 413 584 413 593 401 c 1,867,868
 574 387 574 387 575 367 c 1,869,870
 577 349 577 349 602 357 c 1,871,872
 618 349 618 349 620 319 c 1,873,874
 620 331 620 331 619 343.5 c 128,-1,875
 618 356 618 356 615.5 373.5 c 128,-1,876
 613 391 613 391 612 397 c 1,877,878
 665 404 665 404 654 328 c 1,879,880
 665 368 665 368 664 378 c 1,881,882
 667 392 667 392 678 397 c 128,-1,883
 689 402 689 402 703.5 404.5 c 128,-1,884
 718 407 718 407 725 413 c 1,885,886
 741 396 741 396 757 352 c 128,-1,887
 773 308 773 308 792 290 c 1,888,889
 785 275 785 275 763 273 c 128,-1,890
 741 271 741 271 719 275.5 c 128,-1,891
 697 280 697 280 678 274 c 1,892,893
 661 275 661 275 654.5 282 c 128,-1,894
 648 289 648 289 649 302 c 1,895,896
 647 296 647 296 646 290 c 1,897,898
 641 277 641 277 640 294 c 0,899,900
 638 331 638 331 635.5 332 c 128,-1,901
 633 333 633 333 628 323 c 1,902,903
 634 307 634 307 628 299 c 0,904,905
 625 295 625 295 622 305 c 0,906,907
 621 308 621 308 620 313 c 1,908,909
 619 291 619 291 609 279 c 128,-1,910
 599 267 599 267 581 274 c 1,911,912
 568 291 568 291 566.5 317.5 c 128,-1,913
 565 344 565 344 569 366 c 128,-1,914
 573 388 573 388 569 414 c 1,915,916
 568 448 568 448 569 510 c 128,-1,917
 570 572 570 572 570 594 c 1,835,836
620 313 m 1,918,919
 620 316 620 316 620 319 c 1,920,921
 619 317 619 317 619 315 c 0,922,923
 619 314 619 314 620 313 c 1,918,919
649 302 m 1,924,925
 652 317 652 317 654 328 c 1,926,927
 649 311 649 311 649 302 c 1,924,925
609 528 m 1,928,929
 610 529 610 529 610 530 c 1,930,931
 608 529 608 529 609 528 c 1,928,929
631 534 m 0,932,-1
645 545 m 1,933,934
 647 549 647 549 646 551 c 1,935,936
 645 547 645 547 645 545 c 1,933,934
721 593 m 0,937,-1
663 592 m 0,938,-1
700 592 m 0,939,-1
762 591 m 0,940,941
 764 591 764 591 768 589 c 1,942,943
 769 586 769 586 767 585 c 0,944,945
 764 583 764 583 760 589 c 0,946,947
 759 591 759 591 762 591 c 0,940,941
657 591 m 2,948,949
 658 591 658 591 658 591 c 1,950,-1
 657 591 l 2,948,949
660 589 m 0,951,-1
703 588 m 0,952,-1
749 586 m 1,953,954
 756 586 756 586 756 581 c 0,955,956
 755 574 755 574 748 576 c 0,957,958
 743 577 743 577 740 584 c 1,959,960
 745 585 745 585 749 586 c 1,953,954
677 583 m 2,961,-1
 683 581 l 1,962,963
 678 578 678 578 673 580 c 0,964,965
 671 581 671 581 673 583 c 1,966,967
 676 583 676 583 677 583 c 2,961,-1
715 582 m 0,968,-1
658 582 m 2,969,-1
 656 579 l 1,970,-1
 655 581 l 1,971,972
 657 582 657 582 658 582 c 2,969,-1
658 577 m 0,973,-1
669 577 m 2,974,-1
 672 577 l 1,975,-1
 664 576 l 1,976,-1
 664 577 l 1,977,978
 668 577 668 577 669 577 c 2,974,-1
765 576 m 0,979,980
 768 576 768 576 769 575 c 256,981,982
 770 574 770 574 768 573 c 0,983,984
 764 572 764 572 760 574 c 1,985,-1
 761 576 l 1,986,987
 764 576 764 576 765 576 c 0,979,980
754 573 m 0,988,-1
655 573 m 0,989,-1
674 573 m 256,990,991
 676 573 676 573 680 572 c 1,992,993
 672 561 672 561 666 567 c 0,994,995
 662 571 662 571 671 572 c 0,996,997
 672 573 672 573 674 573 c 256,990,991
738 570 m 1,998,999
 753 566 753 566 753 559 c 0,1000,1001
 754 552 754 552 744 559 c 0,1002,1003
 741 561 741 561 739 564 c 1,1004,-1
 738 570 l 1,998,999
758 569 m 0,1005,1006
 765 569 765 569 766 567 c 1,1007,1008
 766 562 766 562 755 569 c 1,1009,1010
 757 569 757 569 758 569 c 0,1005,1006
708 567 m 1,1011,-1
 708 566 l 2,1012,1013
 708 567 708 567 708 567 c 1,1011,-1
654 566 m 1,1014,1015
 654 566 654 566 656 566 c 1,1016,1017
 655 564 655 564 654 566 c 1,1014,1015
761 566 m 1,1018,1019
 763 566 763 566 766 565 c 1,1020,1021
 767 563 767 563 767 562 c 0,1022,1023
 767 557 767 557 761 563 c 0,1024,1025
 760 565 760 565 761 566 c 1,1018,1019
677 563 m 2,1026,1027
 678 563 678 563 679 563 c 2,1028,-1
 677 563 l 2,1026,1027
676 562 m 0,1029,-1
710 562 m 2,1030,1031
 710 562 710 562 707 561 c 1,1032,1033
 709 562 709 562 710 562 c 2,1030,1031
683 561 m 0,1034,-1
655 559 m 0,1035,-1
731 559 m 0,1036,-1
767 558 m 1,1037,-1
 766 558 l 2,1038,1039
 767 558 767 558 767 558 c 1,1037,-1
662 558 m 0,1040,-1
656 556 m 1,1041,1042
 656 556 656 556 657 556 c 2,1043,-1
 656 556 l 1,1041,1042
696 552 m 0,1044,-1
721 551 m 0,1045,-1
754 550 m 0,1046,-1
686 550 m 0,1047,-1
681 549 m 1,1048,1049
 680 547 680 547 678 546 c 1,1050,1051
 680 547 680 547 684 548 c 1,1052,1053
 684 542 684 542 679 543 c 0,1054,1055
 674 543 674 543 678 546 c 1,1056,1057
 674 544 674 544 673 546 c 1,1058,-1
 677 549 l 2,1059,1060
 678 549 678 549 681 549 c 1,1048,1049
707 548 m 0,1061,-1
768 548 m 1,1062,1063
 780 532 780 532 769 523 c 128,-1,1064
 758 514 758 514 744 517 c 1,1065,1066
 760 510 760 510 759 508 c 1,1067,1068
 751 511 751 511 728 518 c 128,-1,1069
 705 525 705 525 689 530.5 c 128,-1,1070
 673 536 673 536 662 543 c 1,1071,1072
 670 539 670 539 700.5 530.5 c 128,-1,1073
 731 522 731 522 742 518 c 1,1074,1075
 733 522 733 522 741 532 c 1,1076,1077
 744 534 744 534 754 539 c 128,-1,1078
 764 544 764 544 768 548 c 1,1062,1063
742 518 m 2,1079,1080
 743 517 743 517 744 517 c 1,1081,1082
 742 518 742 518 742 518 c 2,1079,1080
678 546 m 0,1083,-1
696 545 m 0,1084,-1
657 545 m 2,1085,-1
 655 545 l 2,1086,1087
 656 545 656 545 657 545 c 2,1085,-1
695 542 m 0,1088,-1
698 542 m 0,1089,-1
701 541 m 0,1090,-1
694 540 m 0,1091,-1
790 539 m 1,1092,-1
 789 539 l 2,1093,1094
 790 539 790 539 790 539 c 1,1092,-1
654 539 m 1,1095,1096
 672 529 672 529 711 518.5 c 128,-1,1097
 750 508 750 508 767 499 c 1,1098,1099
 779 484 779 484 765 485 c 1,1100,1101
 754 488 754 488 753 494 c 1,1102,1103
 740 497 740 497 723 504 c 1,1104,-1
 721 505 l 2,1105,1106
 711 509 711 509 687 520.5 c 128,-1,1107
 663 532 663 532 651 536 c 1,1108,-1
 654 539 l 1,1095,1096
721 505 m 1,1109,1110
 721 504 721 504 721.5 504 c 128,-1,1111
 722 504 722 504 723 504 c 1,1112,1113
 722 504 722 504 721 505 c 1,1109,1110
786 538 m 0,1114,-1
731 538 m 0,1115,-1
795 537 m 0,1116,-1
802 537 m 0,1117,-1
739 536 m 0,1118,-1
648 532 m 0,1119,-1
640 527 m 0,1120,-1
655 523 m 1,1121,-1
 654 523 l 1,1122,-1
 655 523 l 1,1121,-1
673 522 m 0,1123,-1
792 522 m 0,1124,-1
623 522 m 0,1125,-1
676 520 m 2,1126,-1
 674 520 l 2,1127,1128
 675 520 675 520 676 520 c 2,1126,-1
647 518 m 1,1129,1130
 648 515 648 515 649 513 c 1,1131,1132
 650 514 650 514 650 516 c 1,1133,1134
 659 510 659 510 652 507 c 0,1135,1136
 650 506 650 506 649 507 c 1,1137,1138
 644 504 644 504 641 511 c 0,1139,1140
 638 516 638 516 647 518 c 1,1129,1130
649 507 m 1,1141,1142
 650 509 650 509 649 513 c 1,1143,1144
 647 509 647 509 649 507 c 1,1141,1142
679 518 m 0,1145,-1
711 517 m 0,1146,-1
681 517 m 0,1147,-1
686 516 m 0,1148,-1
793 515 m 0,1149,-1
719 514 m 0,1150,-1
613 514 m 0,1151,-1
807 513 m 1,1152,1153
 808 502 808 502 801 499 c 0,1154,1155
 793 496 793 496 784 502 c 256,1156,1157
 775 508 775 508 790 510 c 0,1158,1159
 794 510 794 510 800 510 c 1,1160,-1
 807 513 l 1,1152,1153
682 512 m 0,1161,-1
632 512 m 0,1162,-1
728 511 m 1,1163,-1
 727 509 l 1,1164,-1
 728 511 l 1,1163,-1
670 511 m 0,1165,-1
689 509 m 0,1166,-1
696 506 m 0,1167,-1
885 506 m 0,1168,-1
617 505 m 0,1169,-1
647 505 m 0,1170,-1
746 505 m 0,1171,-1
655 504 m 0,1172,-1
732 503 m 0,1173,-1
736 502 m 0,1174,-1
755 501 m 0,1175,-1
689 501 m 0,1176,-1
711 501 m 0,1177,-1
763 499 m 0,1178,-1
718 499 m 1,1179,1180
 713 487 713 487 703 485 c 0,1181,1182
 697 483 697 483 697 486 c 0,1183,1184
 697 490 697 490 712 495 c 1,1185,-1
 718 499 l 1,1179,1180
678 497 m 1,1186,1187
 678 497 678 497 679 497 c 1,1188,1189
 676 489 676 489 685 488 c 0,1190,1191
 689 488 689 488 678 482 c 1,1192,1193
 674 484 674 484 673 490 c 128,-1,1194
 672 496 672 496 678 497 c 1,1186,1187
646 497 m 1,1195,1196
 650 491 650 491 649 488 c 0,1197,1198
 648 484 648 484 642 486 c 0,1199,1200
 634 488 634 488 638 491 c 0,1201,1202
 640 492 640 492 644 493 c 1,1203,-1
 645 495 l 1,1204,-1
 646 497 l 1,1195,1196
602 496 m 0,1205,-1
744 496 m 0,1206,-1
726 494 m 0,1207,-1
748 494 m 0,1208,-1
820 493 m 0,1209,-1
805 492 m 0,1210,-1
733 492 m 0,1211,-1
818 491 m 1,1212,1213
 834 481 834 481 813 466 c 0,1214,1215
 804 460 804 460 801.5 461 c 128,-1,1216
 799 462 799 462 811 472 c 1,1217,1218
 818 475 818 475 819.5 477.5 c 128,-1,1219
 821 480 821 480 818.5 481 c 128,-1,1220
 816 482 816 482 813.5 483.5 c 128,-1,1221
 811 485 811 485 809 486 c 128,-1,1222
 807 487 807 487 809 488 c 128,-1,1223
 811 489 811 489 818 491 c 1,1212,1213
779 491 m 0,1224,-1
887 490 m 1,1225,1226
 893 459 893 459 891.5 405 c 128,-1,1227
 890 351 890 351 892 319 c 1,1228,1229
 895 299 895 299 887 287 c 0,1230,1231
 883 281 883 281 881 293 c 0,1232,1233
 880 297 880 297 880 303 c 0,1234,1235
 883 327 883 327 881.5 389.5 c 128,-1,1236
 880 452 880 452 881 476 c 0,1237,1238
 881 490 881 490 887 490 c 1,1225,1226
718 490 m 1,1239,1240
 718 490 718 490 719 490 c 2,1241,-1
 718 490 l 1,1239,1240
627 490 m 1,1242,1243
 634 483 634 483 631 478 c 256,1244,1245
 628 473 628 473 621 484 c 1,1246,-1
 622 488 l 1,1247,-1
 627 490 l 1,1242,1243
665 489 m 0,1248,-1
740 488 m 0,1249,-1
747 488 m 0,1250,-1
787 487 m 0,1251,-1
860 486 m 0,1252,-1
781 486 m 0,1253,-1
727 486 m 0,1254,-1
863 486 m 0,1255,-1
721 484 m 0,1256,-1
791 482 m 0,1257,-1
613 482 m 0,1258,-1
708 482 m 0,1259,-1
755 481 m 0,1260,-1
597 481 m 0,1261,-1
649 481 m 0,1262,-1
859 481 m 0,1263,-1
685 480 m 0,1264,-1
741 479 m 0,1265,-1
735 477 m 0,1266,-1
773 476 m 0,1267,-1
722 475 m 0,1268,-1
792 475 m 0,1269,-1
637 475 m 0,1270,-1
673 474 m 1,1271,1272
 676 470 676 470 676 467 c 1,1273,1274
 677 469 677 469 679 471 c 1,1275,1276
 686 461 686 461 678 460 c 0,1277,1278
 675 460 675 460 675 463 c 1,1279,1280
 669 462 669 462 668 468 c 0,1281,1282
 667 472 667 472 673 474 c 1,1271,1272
675 463 m 1,1283,1284
 677 463 677 463 676 467 c 1,1285,1286
 674 465 674 465 675 463 c 1,1283,1284
693 474 m 0,1287,-1
598 473 m 0,1288,-1
754 472 m 1,1289,1290
 763 467 763 467 757 463 c 0,1291,1292
 755 462 755 462 754 463 c 2,1293,-1
 753 464 l 2,1294,1295
 751 466 751 466 754 472 c 1,1289,1290
753 464 m 1,1296,-1
 754 463 l 1,1297,-1
 753 464 l 1,1296,-1
809 472 m 0,1298,-1
703 470 m 0,1299,-1
781 469 m 0,1300,-1
737 468 m 1,1301,1302
 743 462 743 462 740 460 c 0,1303,1304
 738 459 738 459 734 460 c 0,1305,1306
 731 461 731 461 730 461.5 c 128,-1,1307
 729 462 729 462 730.5 462.5 c 128,-1,1308
 732 463 732 463 737 463 c 1,1309,1310
 737 464 737 464 737 465.5 c 128,-1,1311
 737 467 737 467 737 468 c 1,1301,1302
661 468 m 1,1312,1313
 663 465 663 465 663 462 c 1,1314,1315
 664 463 664 463 666 464 c 1,1316,1317
 674 456 674 456 667 453 c 0,1318,1319
 661 451 661 451 660 455 c 1,1320,1321
 657 455 657 455 655 457 c 128,-1,1322
 653 459 653 459 654 462.5 c 128,-1,1323
 655 466 655 466 661 468 c 1,1312,1313
660 455 m 1,1324,1325
 664 455 664 455 663 462 c 1,1326,1327
 659 458 659 458 660 455 c 1,1324,1325
622 468 m 2,1328,1329
 622 468 622 468 623 468 c 1,1330,1331
 619 462 619 462 627 457 c 0,1332,1333
 629 456 629 456 627 456 c 2,1334,1335
 627 456 627 456 618 457 c 1,1336,1337
 615 460 615 460 616.5 464 c 128,-1,1338
 618 468 618 468 622 468 c 2,1328,1329
689 468 m 0,1339,-1
766 466 m 0,1340,-1
794 465 m 0,1341,-1
716 463 m 1,1342,1343
 722 458 722 458 718 456 c 0,1344,1345
 714 453 714 453 711 455 c 0,1346,1347
 709 457 709 457 714 459 c 0,1348,1349
 715 459 715 459 716 460 c 1,1350,-1
 716 463 l 1,1342,1343
762 463 m 0,1351,-1
592 461 m 0,1352,-1
750 461 m 1,1353,1354
 759 456 759 456 752 452 c 0,1355,1356
 749 450 749 450 748 453 c 1,1357,1358
 744 451 744 451 743 454 c 0,1359,1360
 742 456 742 456 744 459 c 1,1361,1362
 747 458 747 458 748 456 c 1,1363,1364
 748 458 748 458 750 461 c 1,1353,1354
748 456 m 1,1365,1366
 747 454 747 454 748 453 c 1,1367,1368
 750 454 750 454 748 456 c 1,1365,1366
610 461 m 0,1369,-1
849 460 m 0,1370,1371
 850 460 850 460 852 460 c 1,1372,1373
 853 459 853 459 853 458 c 0,1374,1375
 854 457 854 457 853 457 c 0,1376,1377
 847 457 847 457 847 459 c 0,1378,1379
 847 460 847 460 849 460 c 0,1370,1371
644 460 m 0,1380,-1
780 460 m 0,1381,-1
776 457 m 0,1382,-1
731 455 m 1,1383,-1
 730 454 l 1,1384,-1
 731 455 l 1,1383,-1
851 455 m 0,1385,-1
762 454 m 0,1386,-1
596 453 m 2,1387,1388
 597 453 597 453 598 453 c 2,1389,-1
 596 453 l 2,1387,1388
623 453 m 0,1390,-1
757 453 m 0,1391,-1
632 453 m 1,1392,1393
 633 449 633 449 633 447 c 1,1394,1395
 634 449 634 449 637 452 c 1,1396,1397
 647 447 647 447 642 443 c 128,-1,1398
 637 439 637 439 634 442 c 0,1399,1400
 633 443 633 443 633 444 c 1,1401,1402
 630 440 630 440 626 446 c 0,1403,1404
 623 451 623 451 632 453 c 1,1392,1393
633 447 m 1,1405,1406
 633 445 633 445 633 444 c 1,1407,1408
 633 445 633 445 633 447 c 1,1405,1406
788 452 m 0,1409,-1
775 450 m 0,1410,-1
669 449 m 1,1411,1412
 672 446 672 446 673 443 c 1,1413,1414
 674 445 674 445 675 447 c 1,1415,1416
 677 438 677 438 671 437 c 1,1417,1418
 667 438 667 438 664.5 442.5 c 128,-1,1419
 662 447 662 447 669 449 c 1,1411,1412
671 437 m 1,1420,1421
 675 437 675 437 673 443 c 1,1422,1423
 671 439 671 439 671 437 c 1,1420,1421
711 449 m 0,1424,-1
744 448 m 0,1425,-1
702 446 m 1,1426,1427
 702 447 702 447 703 446 c 0,1428,1429
 718 433 718 433 697 424 c 1,1430,1431
 678 417 678 417 673 424 c 0,1432,1433
 669 429 669 429 685 439 c 0,1434,1435
 695 446 695 446 702 446 c 1,1426,1427
770 446 m 1,1436,1437
 773 444 773 444 774 443 c 1,1438,-1
 773 441 l 2,1439,1440
 771 439 771 439 769 441 c 0,1441,1442
 768 443 768 443 770 446 c 1,1436,1437
773 441 m 1,1443,1444
 774 442 774 442 774 443 c 1,1445,1446
 771 441 771 441 773 441 c 1,1443,1444
658 444 m 0,1447,-1
723 443 m 0,1448,-1
595 443 m 1,1449,1450
 602 440 602 440 620.5 440 c 128,-1,1451
 639 440 639 440 650.5 436 c 128,-1,1452
 662 432 662 432 663 418 c 1,1453,1454
 660 422 660 422 616 426 c 0,1455,1456
 591 429 591 429 590 435 c 0,1457,1458
 590 438 590 438 595 443 c 1,1449,1450
788 442 m 0,1459,-1
757 441 m 0,1460,-1
795 439 m 0,1461,-1
794 436 m 0,1462,-1
737 436 m 1,1463,1464
 744 431 744 431 739 428 c 1,1465,1466
 735 424 735 424 735 430 c 1,1467,1468
 732 428 732 428 730 431 c 0,1469,1470
 729 432 729 432 732 435 c 1,1471,1472
 734 434 734 434 735 433 c 1,1473,1474
 736 434 736 434 737 436 c 1,1463,1464
735 433 m 1,1475,1476
 735 431 735 431 735 430 c 1,1477,1478
 737 431 737 431 735 433 c 1,1475,1476
769 435 m 0,1479,-1
764 434 m 0,1480,-1
799 433 m 1,1481,1482
 793 417 793 417 756 411 c 0,1483,1484
 746 409 746 409 745 411 c 0,1485,1486
 743 413 743 413 763 420 c 0,1487,1488
 785 427 785 427 799 433 c 1,1481,1482
778 432 m 0,1489,-1
749 429 m 1,1490,1491
 756 427 756 427 753 423 c 1,1492,1493
 750 421 750 421 748 423 c 1,1494,1495
 747 421 747 421 744 422 c 1,1496,1497
 742 424 742 424 744 428 c 1,1498,1499
 748 426 748 426 748 424 c 1,1500,1501
 748 426 748 426 749 428 c 1,1502,-1
 749 429 l 1,1490,1491
748 424 m 257,1503,1504
 748 424 748 424 748 423 c 1,1505,1506
 748 424 748 424 748 424 c 257,1503,1504
599 427 m 0,1507,1508
 618 427 618 427 633 420 c 0,1509,1510
 635 419 635 419 633 419 c 0,1511,1512
 629 419 629 419 615 422 c 2,1513,1514
 615 422 615 422 608 423 c 0,1515,1516
 590 424 590 424 591 425 c 0,1517,1518
 591 426 591 426 593 427 c 0,1519,1520
 595 427 595 427 599 427 c 0,1507,1508
718 424 m 0,1521,-1
731 423 m 1,1522,-1
 731 422 l 1,1523,-1
 731 423 l 1,1522,-1
697 422 m 0,1524,-1
799 422 m 1,1525,1526
 790 409 790 409 755 403 c 1,1527,-1
 748 403 l 1,1528,1529
 749 405 749 405 765 411 c 0,1530,1531
 784 418 784 418 799 422 c 1,1525,1526
597 421 m 0,1532,1533
 621 422 621 422 643 411 c 0,1534,1535
 650 407 650 407 642 407 c 0,1536,1537
 637 407 637 407 628 408 c 1,1538,1539
 621 410 621 410 614 409.5 c 128,-1,1540
 607 409 607 409 599.5 411 c 128,-1,1541
 592 413 592 413 590 420 c 1,1542,1543
 593 421 593 421 597 421 c 0,1532,1533
715 421 m 1,1544,1545
 715 421 715 421 716 421 c 2,1546,-1
 715 421 l 1,1544,1545
707 420 m 0,1547,-1
691 420 m 0,1548,-1
741 419 m 2,1549,-1
 740 419 l 1,1550,1551
 740 419 740 419 741 419 c 2,1549,-1
702 418 m 0,1552,-1
720 418 m 0,1553,-1
705 417 m 0,1554,-1
684 416 m 0,1555,-1
656 415 m 0,1556,-1
678 415 m 0,1557,-1
799 415 m 1,1558,1559
 794 398 794 398 766 394 c 0,1560,1561
 756 393 756 393 754 395 c 0,1562,1563
 752 399 752 399 774 405 c 0,1564,1565
 778 407 778 407 786 410 c 128,-1,1566
 794 413 794 413 799 415 c 1,1558,1559
680 412 m 1,1567,-1
 678 412 l 2,1568,1569
 680 412 680 412 680 412 c 1,1567,-1
690 411 m 0,1570,-1
673 411 m 0,1571,-1
692 410 m 0,1572,-1
683 410 m 2,1573,-1
 681 410 l 2,1574,1575
 682 410 682 410 683 410 c 2,1573,-1
693 408 m 0,1576,-1
603 407 m 0,1577,1578
 624 407 624 407 637 400 c 0,1579,1580
 640 399 640 399 636 399 c 0,1581,1582
 631 399 631 399 620 401 c 0,1583,1584
 619 401 619 401 614 401 c 0,1585,1586
 599 403 599 403 599 405 c 0,1587,1588
 599 406 599 406 601 407 c 0,1589,1590
 602 407 602 407 603 407 c 0,1577,1578
679 407 m 0,1591,-1
682 406 m 0,1592,-1
696 406 m 0,1593,-1
801 406 m 1,1594,1595
 800 393 800 393 782 386 c 1,1596,1597
 787 388 787 388 793 388 c 1,1598,-1
 801 392 l 1,1599,1600
 801 386 801 386 804.5 365.5 c 128,-1,1601
 808 345 808 345 806.5 332.5 c 128,-1,1602
 805 320 805 320 797 314 c 1,1603,1604
 806 285 806 285 800 284 c 0,1605,1606
 798 284 798 284 791 299 c 1,1607,1608
 779 312 779 312 769.5 328.5 c 128,-1,1609
 760 345 760 345 760.5 362 c 128,-1,1610
 761 379 761 379 778 385 c 1,1611,1612
 760 380 760 380 759 386 c 0,1613,1614
 758 390 758 390 778 396 c 0,1615,1616
 795 402 795 402 801 406 c 1,1594,1595
778 385 m 1,1617,1618
 780 386 780 386 782 386 c 1,1619,1620
 780 386 780 386 778 385 c 1,1617,1618
679 405 m 1,1621,1622
 682 404 682 404 682 404 c 2,1623,1624
 683 404 683 404 683 404 c 1,1625,-1
 682 404 l 2,1626,1627
 681 404 681 404 679 405 c 1,1621,1622
682 404 m 0,1628,-1
666 404 m 0,1629,-1
676 402 m 0,1630,-1
625 401 m 0,1631,-1
677 400 m 0,1632,-1
598 394 m 0,1633,1634
 600 394 600 394 602 393 c 0,1635,1636
 615 381 615 381 597 375 c 0,1637,1638
 581 369 581 369 578 376 c 0,1639,1640
 576 381 576 381 589 390 c 1,1641,1642
 593 394 593 394 598 394 c 0,1633,1634
605 369 m 0,1643,-1
809 306 m 0,1644,-1
637 290 m 0,1645,-1
631 289 m 0,1646,-1
622 288 m 0,1647,-1
823 285 m 0,1648,-1
809 285 m 2,1649,-1
 808 285 l 1,1650,1651
 808 285 808 285 809 285 c 2,1649,-1
808 283 m 0,1652,-1
863 274 m 0,1653,-1
879 273 m 1,1654,1655
 884 256 884 256 879 243 c 1,1656,-1
 878 257 l 1,1657,-1
 878 265 l 1,1658,-1
 879 273 l 1,1654,1655
840 273 m 0,1659,-1
874 273 m 0,1660,-1
885 273 m 1,1661,1662
 889 257 889 257 885 244 c 0,1663,1664
 884 241 884 241 883 244 c 1,1665,1666
 883 248 883 248 883 258 c 0,1667,1668
 883 270 883 270 885 273 c 1,1661,1662
660 271 m 1,1669,1670
 664 254 664 254 660 248 c 0,1671,1672
 659 246 659 246 659 249 c 0,1673,1674
 658 253 658 253 659 266 c 1,1675,1676
 659 266 659 266 660 271 c 1,1669,1670
835 271 m 0,1677,-1
839 271 m 0,1678,-1
868 271 m 0,1679,-1
778 270 m 1,1680,1681
 780 257 780 257 778 249 c 0,1682,1683
 777 245 777 245 776 250 c 0,1684,1685
 776 254 776 254 777 265 c 1,1686,-1
 778 270 l 1,1680,1681
784 270 m 1,1687,1688
 788 252 788 252 784 246 c 0,1689,1690
 783 245 783 245 782 248 c 0,1691,1692
 781 252 781 252 783 264 c 0,1693,1694
 784 269 784 269 784 270 c 1,1687,1688
655 270 m 0,1695,-1
665 270 m 0,1696,-1
676 270 m 0,1697,-1
701 270 m 1,1698,1699
 704 251 704 251 700 247 c 1,1700,-1
 700 262 l 1,1701,-1
 701 270 l 1,1698,1699
795 270 m 0,1702,-1
711 270 m 0,1703,-1
743 270 m 1,1704,1705
 747 249 747 249 742 245 c 1,1706,-1
 741 255 l 2,1707,1708
 741 258 741 258 741 263 c 0,1709,1710
 741 264 741 264 743 270 c 1,1704,1705
670 270 m 0,1711,-1
721 270 m 0,1712,-1
691 269 m 1,1713,1714
 693 263 693 263 690 256 c 1,1715,-1
 690 258 l 2,1716,1717
 690 259 690 259 690 263 c 2,1718,-1
 691 269 l 1,1713,1714
773 269 m 0,1719,-1
716 269 m 0,1720,-1
748 269 m 1,1721,1722
 751 253 751 253 748 245 c 1,1723,-1
 747 260 l 1,1724,-1
 748 269 l 1,1721,1722
651 269 m 0,1725,-1
695 269 m 0,1726,-1
738 269 m 0,1727,-1
789 269 m 1,1728,1729
 793 251 793 251 789 245 c 0,1730,1731
 788 244 788 244 788 246 c 0,1732,1733
 787 250 787 250 789 263 c 1,1734,-1
 789 269 l 1,1728,1729
610 269 m 0,1735,-1
705 269 m 0,1736,-1
763 269 m 0,1737,-1
768 268 m 0,1738,-1
615 268 m 0,1739,-1
726 268 m 0,1740,-1
753 267 m 0,1741,-1
835 267 m 1,1742,-1
 834 267 l 2,1743,1744
 835 267 835 267 835 267 c 1,1742,-1
622 267 m 0,1745,-1
758 267 m 1,1746,1747
 761 247 761 247 757 244 c 0,1748,1749
 756 244 756 244 757 259 c 2,1750,-1
 758 267 l 1,1746,1747
763 267 m 1,1751,1752
 765 254 765 254 763 246 c 0,1753,1754
 762 242 762 242 762 247 c 1,1755,1756
 761 251 761 251 762 261 c 2,1757,-1
 763 267 l 1,1751,1752
695 267 m 0,1758,-1
623 266 m 1,1759,-1
 623 265 l 1,1760,-1
 623 266 l 1,1759,-1
845 265 m 0,1761,-1
732 265 m 0,1762,-1
772 265 m 0,1763,-1
834 265 m 0,1764,-1
752 265 m 0,1765,-1
587 264 m 0,1766,-1
721 263 m 0,1767,-1
825 263 m 0,1768,-1
685 262 m 0,1769,-1
711 260 m 0,1770,-1
868 259 m 0,1771,-1
844 259 m 0,1772,-1
768 258 m 0,1773,-1
722 256 m 0,1774,-1
681 256 m 0,1775,-1
732 254 m 0,1776,-1
582 253 m 0,1777,-1
864 252 m 0,1778,-1
732 251 m 0,1779,-1
707 249 m 0,1780,-1
753 249 m 0,1781,-1
582 248 m 0,1782,-1
773 247 m 0,1783,-1
690 246 m 0,1784,-1
650 245 m 0,1785,-1
577 244 m 0,1786,-1
753 244 m 0,1787,-1
655 243 m 0,1788,-1
721 242 m 0,1789,-1
711 241 m 0,1790,-1
EndSplineSet
Validated: 165
EndChar

StartChar: u1F0CF
Encoding: 127183 127183 33
Width: 1024
VWidth: 90
GlyphClass: 2
Flags: W
LayerCount: 2
Fore
SplineSet
451 1016 m 0,0,1
 450 1016 450 1016 450 1016 c 2,2,3
 447 1016 447 1016 444 1013 c 0,4,5
 441 1011 441 1011 440 1011 c 0,6,7
 438 1010 438 1010 431 1010 c 0,8,9
 424 1009 424 1009 417 1004 c 0,10,11
 412 1000 412 1000 410 988 c 0,12,13
 409 984 409 984 411 976 c 256,14,15
 413 968 413 968 412 964 c 2,16,17
 412 964 412 964 406 947 c 0,18,19
 399 924 399 924 398 916 c 1,20,21
 398 903 398 903 409 886 c 1,22,23
 409 886 409 886 409 886 c 1,24,25
 410 885 410 885 411 885 c 128,-1,26
 412 885 412 885 412 886 c 1,27,28
 415 883 415 883 417 882 c 256,29,30
 419 881 419 881 419 882 c 1,31,32
 424 876 424 876 432 873 c 1,33,34
 430 871 430 871 428 869 c 1,35,-1
 427 869 l 2,36,37
 426 869 426 869 426 869 c 2,38,39
 425 869 425 869 425 868 c 0,40,41
 423 867 423 867 419 865 c 128,-1,42
 415 863 415 863 413 861 c 0,43,44
 396 849 396 849 391 843 c 0,45,46
 390 842 390 842 388 839 c 0,47,48
 388 838 388 838 387 838 c 1,49,-1
 387 837 l 1,50,51
 385 835 385 835 379 828 c 128,-1,52
 373 821 373 821 369 817 c 1,53,-1
 369 816 l 1,54,55
 368 815 368 815 342 791 c 1,56,57
 315 762 315 762 312 750 c 0,58,59
 310 745 310 745 312 741 c 0,60,61
 313 740 313 740 316 736 c 0,62,63
 346 701 346 701 362 688 c 0,64,65
 377 677 377 677 404 661 c 0,66,67
 406 660 406 660 409 660 c 0,68,69
 411 660 411 660 412 659 c 1,70,-1
 410 656 l 2,71,72
 409 655 409 655 410 654 c 1,73,74
 406 647 406 647 403 644 c 0,75,76
 384 618 384 618 364 564 c 0,77,78
 364 563 364 563 365 562 c 0,79,80
 369 558 369 558 374 555.5 c 128,-1,81
 379 553 379 553 387.5 551.5 c 128,-1,82
 396 550 396 550 398 549 c 0,83,84
 402 548 402 548 408 546 c 1,85,86
 407 539 407 539 410 490 c 0,87,88
 410 485 410 485 408.5 475 c 128,-1,89
 407 465 407 465 407 459 c 1,90,91
 408 455 408 455 405 448 c 0,92,93
 398 428 398 428 402 402 c 0,94,95
 404 392 404 392 408.5 382 c 128,-1,96
 413 372 413 372 420.5 359 c 128,-1,97
 428 346 428 346 430 340 c 1,98,99
 434 333 434 333 435 325 c 1,100,101
 435 325 435 325 435 324 c 256,102,103
 435 323 435 323 435 322 c 0,104,105
 435 318 435 318 435 318 c 2,106,107
 435 313 435 313 435 311 c 0,108,109
 435 310 435 310 434 309 c 2,110,-1
 433 305 l 1,111,112
 433 305 433 305 433 304 c 0,113,114
 432 301 432 301 431 299 c 0,115,116
 430 296 430 296 430 294 c 0,117,118
 430 293 430 293 430 293 c 257,119,120
 430 293 430 293 430 292 c 0,121,122
 429 290 429 290 429 288 c 128,-1,123
 429 286 429 286 429 285 c 0,124,125
 430 284 430 284 432 281.5 c 128,-1,126
 434 279 434 279 434 279 c 1,127,128
 438 271 438 271 441 255 c 2,129,-1
 444 239 l 2,130,131
 444 238 444 238 445 238 c 2,132,-1
 448 238 l 1,133,134
 448 237 448 237 449 238 c 2,135,-1
 451 239 l 2,136,137
 452 239 452 239 452 240 c 2,138,-1
 450 264 l 2,139,140
 451 263 451 263 452 262 c 128,-1,141
 453 261 453 261 453 260 c 0,142,143
 455 258 455 258 456 257 c 0,144,145
 457 255 457 255 457 253 c 0,146,147
 458 251 458 251 459 247 c 128,-1,148
 460 243 460 243 461 241 c 0,149,150
 463 234 463 234 465 232 c 0,151,152
 470 225 470 225 486 224 c 0,153,154
 500 224 500 224 511 227 c 0,155,156
 514 228 514 228 516 230 c 0,157,158
 517 232 517 232 517 235 c 0,159,160
 517 236 517 236 517 236 c 1,161,162
 518 236 518 236 518 237 c 0,163,164
 519 238 519 238 519 239.5 c 128,-1,165
 519 241 519 241 518 243 c 0,166,167
 518 244 518 244 518 246 c 1,168,169
 517 246 517 246 517 246.5 c 128,-1,170
 517 247 517 247 516 248 c 1,171,172
 516 248 516 248 516 248 c 1,173,174
 516 249 516 249 515 249 c 1,175,176
 515 249 515 249 515 249 c 1,177,-1
 515 249 l 1,178,179
 512 251 512 251 508 253 c 128,-1,180
 504 255 504 255 503 256 c 2,181,-1
 502 257 l 1,182,183
 502 257 502 257 502 257 c 129,-1,184
 502 257 502 257 501.5 257.5 c 128,-1,185
 501 258 501 258 501 258 c 129,-1,186
 501 258 501 258 500 259 c 1,187,-1
 500 259 l 1,188,189
 500 259 500 259 500 259 c 257,190,191
 500 259 500 259 499.5 259.5 c 128,-1,192
 499 260 499 260 499 260 c 2,193,194
 498 261 498 261 497 263 c 0,195,196
 495 265 495 265 494 267 c 0,197,198
 493 268 493 268 493 269 c 1,199,-1
 493 269 l 1,200,201
 492 271 492 271 490.5 275.5 c 128,-1,202
 489 280 489 280 488 282 c 0,203,204
 488 284 488 284 485 290.5 c 128,-1,205
 482 297 482 297 481 300 c 0,206,207
 480 302 480 302 479 307 c 1,208,-1
 479 307 l 1,209,-1
 479 307 l 1,210,211
 478 312 478 312 477 315 c 0,212,213
 477 316 477 316 476 317 c 1,214,-1
 476 317 l 1,215,216
 476 318 476 318 476 318 c 1,217,218
 475 319 475 319 473.5 322.5 c 128,-1,219
 472 326 472 326 471 328 c 0,220,221
 471 329 471 329 470 331 c 0,222,223
 470 332 470 332 470 333 c 2,224,-1
 469 334 l 1,225,226
 466 342 466 342 465 347 c 0,227,228
 463 357 463 357 462 364 c 1,229,230
 462 375 462 375 459 402 c 0,231,232
 458 409 458 409 457 417 c 0,233,234
 457 420 457 420 456.5 426.5 c 128,-1,235
 456 433 456 433 456 436.5 c 128,-1,236
 456 440 456 440 456 446 c 0,237,238
 456 447 456 447 457.5 449.5 c 128,-1,239
 459 452 459 452 460 453 c 0,240,241
 462 457 462 457 463 460 c 0,242,243
 465 465 465 465 466 470 c 0,244,245
 466 472 466 472 466.5 475 c 128,-1,246
 467 478 467 478 467 480 c 0,247,248
 469 488 469 488 472 493 c 0,249,250
 476 500 476 500 484 521 c 0,251,252
 485 523 485 523 486 526 c 1,253,254
 492 526 492 526 496 527 c 0,255,256
 499 527 499 527 505 528 c 1,257,258
 532 501 532 501 548 490 c 0,259,260
 551 487 551 487 552 483 c 0,261,262
 553 480 553 480 552 475 c 0,263,264
 551 472 551 472 550 466.5 c 128,-1,265
 549 461 549 461 548 458 c 0,266,267
 543 432 543 432 553 387 c 0,268,269
 553 385 553 385 554.5 379 c 128,-1,270
 556 373 556 373 556 370 c 0,271,272
 559 357 559 357 559 352 c 256,273,274
 559 347 559 347 559 344 c 0,275,276
 558 340 558 340 557 337 c 0,277,278
 556 336 556 336 556 335 c 1,279,-1
 556 335 l 1,280,281
 556 335 556 335 556 335 c 1,282,283
 555 335 555 335 554 334 c 2,284,-1
 552 331 l 1,285,286
 552 331 552 331 552 330 c 2,287,-1
 552 329 l 1,288,289
 549 326 549 326 549 325 c 0,290,291
 548 324 548 324 548 324 c 1,292,-1
 548 324 l 1,293,-1
 548 324 l 1,294,295
 548 323 548 323 548 322 c 256,296,297
 548 321 548 321 548 321 c 129,-1,298
 548 321 548 321 548 320 c 1,299,-1
 548 320 l 1,300,-1
 546 314 l 2,301,302
 546 313 546 313 546 312 c 0,303,304
 554 293 554 293 557 263 c 0,305,306
 557 261 557 261 558 261 c 2,307,-1
 563 261 l 2,308,309
 564 261 564 261 564 263 c 2,310,-1
 562 296 l 1,311,312
 566 296 566 296 568 295 c 256,313,314
 570 294 570 294 572 293 c 0,315,316
 577 288 577 288 581 276 c 0,317,318
 586 263 586 263 588 260 c 0,319,320
 590 256 590 256 598 254 c 0,321,322
 605 252 605 252 611 252 c 0,323,324
 622 252 622 252 624 253 c 1,325,326
 628 253 628 253 631 255 c 0,327,328
 634 256 634 256 635 259 c 0,329,330
 635 261 635 261 635 264 c 0,331,332
 635 265 635 265 636 267 c 0,333,334
 636 268 636 268 636 268 c 1,335,336
 635 270 635 270 633 271 c 1,337,338
 633 273 633 273 632 275 c 0,339,340
 631 275 631 275 631 276 c 1,341,-1
 631 276 l 1,342,343
 630 276 630 276 630 276 c 1,344,345
 629 277 629 277 627 278 c 0,346,347
 627 279 627 279 626 280 c 0,348,349
 623 281 623 281 618.5 282 c 128,-1,350
 614 283 614 283 614 283 c 129,-1,351
 614 283 614 283 612 287 c 256,352,353
 610 291 610 291 609 294 c 1,354,-1
 609 295 l 1,355,356
 607 299 607 299 607 302 c 0,357,358
 606 309 606 309 601 320 c 0,359,360
 600 322 600 322 600 324 c 1,361,-1
 600 324 l 1,362,363
 600 325 600 325 599 326 c 0,364,365
 599 327 599 327 599 329 c 256,366,367
 599 331 599 331 598.5 334 c 128,-1,368
 598 337 598 337 598 339 c 256,369,370
 598 341 598 341 597 345.5 c 128,-1,371
 596 350 596 350 596 352.5 c 128,-1,372
 596 355 596 355 596 359.5 c 128,-1,373
 596 364 596 364 595 366 c 1,374,375
 595 375 595 375 598 404 c 0,376,377
 598 405 598 405 598.5 410 c 128,-1,378
 599 415 599 415 599 418 c 0,379,380
 599 425 599 425 599 436 c 0,381,382
 599 438 599 438 598.5 442.5 c 128,-1,383
 598 447 598 447 598 450 c 0,384,385
 598 452 598 452 600 464 c 0,386,387
 602 474 602 474 603 477 c 0,388,389
 603 478 603 478 604 480.5 c 128,-1,390
 605 483 605 483 605 485 c 1,391,392
 606 486 606 486 606 489 c 0,393,394
 606 491 606 491 606 492 c 0,395,396
 608 500 608 500 601 512 c 0,397,398
 598 516 598 516 592 526 c 0,399,400
 585 539 585 539 584 542 c 0,401,402
 583 544 583 544 581 548.5 c 128,-1,403
 579 553 579 553 579 554 c 2,404,-1
 581 556 l 2,405,406
 582 557 582 557 581 558 c 0,407,408
 572 571 572 571 566 580 c 0,409,410
 562 587 562 587 560 591 c 0,411,412
 554 600 554 600 549 606 c 0,413,414
 543 614 543 614 539 619 c 0,415,416
 538 620 538 620 535.5 622 c 128,-1,417
 533 624 533 624 533 625 c 0,418,419
 530 630 530 630 530 638 c 0,420,421
 530 639 530 639 530 640 c 0,422,423
 532 641 532 641 533 642 c 0,424,425
 536 645 536 645 538 651 c 0,426,427
 538 653 538 653 538 656 c 0,428,429
 538 658 538 658 539 659 c 0,430,431
 539 660 539 660 540 662 c 0,432,433
 542 666 542 666 542 669 c 256,434,435
 542 672 542 672 540 674 c 0,436,437
 539 675 539 675 537 676 c 1,438,439
 540 681 540 681 540 684 c 0,440,441
 540 685 540 685 537 689 c 1,442,443
 538 691 538 691 538 694 c 128,-1,444
 538 697 538 697 538 701 c 128,-1,445
 538 705 538 705 538 707 c 256,446,447
 538 709 538 709 539 714 c 0,448,449
 541 719 541 719 543 725 c 0,450,451
 547 737 547 737 547 743 c 0,452,453
 547 750 547 750 544 762 c 0,454,455
 544 763 544 763 544 764 c 0,456,457
 545 768 545 768 548 774 c 0,458,459
 552 780 552 780 553 784 c 1,460,-1
 553 784 l 1,461,462
 558 807 558 807 534 835 c 1,463,464
 535 836 535 836 535 838 c 0,465,466
 533 853 533 853 523 862 c 0,467,468
 518 866 518 866 512 867 c 0,469,470
 512 868 512 868 513 868.5 c 128,-1,471
 514 869 514 869 515 870 c 0,472,473
 517 872 517 872 518 874 c 0,474,475
 519 878 519 878 517 887 c 256,476,477
 515 896 515 896 516 899 c 0,478,479
 516 901 516 901 519 905 c 1,480,-1
 518 902 l 2,481,482
 517 900 517 900 518.5 899.5 c 128,-1,483
 520 899 520 899 520 900 c 0,484,485
 527 909 527 909 529 919 c 1,486,487
 531 920 531 920 533 922 c 0,488,489
 534 922 534 922 533.5 923 c 128,-1,490
 533 924 533 924 532 924 c 0,491,492
 531 925 531 925 531 926 c 0,493,494
 531 928 531 928 530 931 c 1,495,496
 530 940 530 940 528 944 c 0,497,498
 527 946 527 946 526 953 c 256,499,500
 525 960 525 960 523 964 c 0,501,502
 522 966 522 966 519 971.5 c 128,-1,503
 516 977 516 977 514 980 c 0,504,505
 512 982 512 982 508 986.5 c 128,-1,506
 504 991 504 991 502 994 c 0,507,508
 499 999 499 999 486 1002 c 1,509,510
 480 1009 480 1009 476 1011 c 0,511,512
 473 1012 473 1012 467.5 1012.5 c 128,-1,513
 462 1013 462 1013 461 1013 c 256,514,515
 460 1013 460 1013 456.5 1014.5 c 128,-1,516
 453 1016 453 1016 451 1016 c 0,0,1
406 927 m 1,517,518
 405 916 405 916 405 909 c 0,519,520
 405 908 405 908 405 904 c 1,521,522
 404 909 404 909 404 914 c 0,523,524
 404 920 404 920 406 927 c 1,517,518
411 910 m 2,525,526
 411 902 411 902 412 897 c 0,527,528
 413 896 413 896 414 892 c 1,529,530
 411 899 411 899 411 907 c 0,531,532
 411 908 411 908 411 909 c 128,-1,533
 411 910 411 910 411 910 c 2,525,526
423 892 m 1,534,535
 428 882 428 882 436 879 c 1,536,537
 435 878 435 878 434 876 c 1,538,539
 426 881 426 881 423 889 c 0,540,541
 423 890 423 890 423 891 c 128,-1,542
 423 892 423 892 423 892 c 1,534,535
509 890 m 1,543,544
 510 889 510 889 510 888 c 0,545,546
 511 882 511 882 511 879.5 c 128,-1,547
 511 877 511 877 508 868 c 1,548,549
 503 869 503 869 499 868 c 1,550,551
 491 868 491 868 491 868 c 2,552,553
 490 868 490 868 488.5 868 c 128,-1,554
 487 868 487 868 486 869 c 1,555,556
 484 869 484 869 483 870 c 1,557,558
 483 872 483 872 484 875 c 1,559,560
 494 873 494 873 499 875 c 0,561,562
 501 876 501 876 502 879 c 1,563,564
 502 879 502 879 502 880 c 2,565,566
 502 880 502 880 502 881 c 1,567,568
 504 875 504 875 504 871 c 0,569,570
 504 869 504 869 505.5 869 c 128,-1,571
 507 869 507 869 507 871 c 0,572,573
 507 872 507 872 507.5 875 c 128,-1,574
 508 878 508 878 508 879 c 0,575,576
 509 884 509 884 507 888 c 1,577,578
 508 888 508 888 509 890 c 1,543,544
406 787 m 1,579,580
 410 779 410 779 413 775 c 0,581,582
 415 772 415 772 419 767.5 c 128,-1,583
 423 763 423 763 425 761 c 0,584,585
 432 750 432 750 434 742 c 0,586,587
 438 723 438 723 435 706 c 1,588,589
 435 706 435 706 433 704 c 0,590,591
 424 692 424 692 419 686 c 1,592,593
 417 686 417 686 415 686 c 0,594,595
 414 686 414 686 414 686 c 1,596,597
 413 687 413 687 411 689 c 0,598,599
 410 689 410 689 407 692 c 128,-1,600
 404 695 404 695 402 696 c 0,601,602
 386 709 386 709 379.5 718.5 c 128,-1,603
 373 728 373 728 361 747 c 1,604,605
 362 748 362 748 363 748 c 0,606,607
 366 750 366 750 370 753 c 0,608,609
 378 760 378 760 382 764 c 0,610,611
 385 768 385 768 401 783 c 0,612,613
 402 784 402 784 406 787 c 1,579,580
EndSplineSet
Validated: 37
EndChar
